M48
METRIC,LZ,000.000
;FILE_FORMAT=3:3
;TYPE=PLATED
;Layer: PTH_Through
;EasyEDA v6.5.28, 2023-10-08 00:58:30
;dae76cc8a077448fa0b369602e060784,f778c3a0cbec4862bbcf1335ede1f8c1,10
;Gerber Generator version 0.2
;Holesize 1 = 0.254 mm
T01C0.254
;Holesize 2 = 0.305 mm
T02C0.305
;Holesize 3 = 0.407 mm
T03C0.407
;Holesize 4 = 0.600 mm
T04C0.600
%
G05
G90
T01
X041859Y-009144
X028245Y-004318
X061062Y-021184
X061112Y-021996
X061214Y-023114
X061214Y-023825
X061214Y-024587
X061214Y-025400
X061265Y-026162
X061316Y-004166
X049936Y-029921
X050648Y-029718
X051664Y-029616
X052527Y-029108
X053137Y-028296
X060808Y-027178
X053543Y-027178
X005182Y-020218
X003505Y-020625
X064719Y-004216
X042316Y-028600
X065380Y-030582
X067412Y-030378
X042266Y-026162
X035814Y-029972
X035103Y-029261
X034442Y-028550
X033680Y-027584
X035712Y-038354
X024028Y-038303
X025603Y-037643
X018491Y-046634
X009652Y-020422
X009347Y-021133
X062738Y-044247
X014326Y-003962
X010566Y-023012
X010668Y-023774
X008585Y-024587
X009144Y-023927
X007976Y-025298
X014580Y-022200
X046838Y-019710
X044806Y-019304
X046126Y-026518
X045110Y-023520
X051918Y-011938
X038811Y-017424
X069317Y-013131
X070663Y-021895
X016561Y-018186
X016408Y-022962
X035568Y-039921
X023978Y-040132
X020980Y-035204
X020726Y-040030
X014540Y-021200
X028804Y-023622
T02
X032309Y-033985
X024740Y-044653
X019660Y-043231
X019253Y-040843
X013310Y-037744
X014326Y-033426
X028905Y-035662
X032360Y-043332
X030328Y-047904
X030074Y-022200
X048209Y-023622
X048260Y-024943
X046380Y-023571
X046380Y-024892
X062332Y-016916
X060503Y-016967
X059131Y-017120
X059639Y-015951
X058826Y-013056
X057404Y-013919
X069748Y-016510
X052121Y-019406
X036322Y-021844
X037287Y-016205
X037440Y-013767
X031547Y-021488
X023927Y-016510
X022962Y-016916
X026314Y-016713
X027838Y-016612
X020726Y-013919
X016154Y-013868
X020676Y-010008
X025044Y-009957
X031344Y-011379
X032918Y-006604
X045517Y-008890
X048768Y-009906
X053543Y-010414
X059233Y-009754
X067920Y-006452
X073965Y-006147
X062078Y-028956
X055677Y-032664
X053696Y-032207
X049987Y-031445
X048616Y-030582
X051460Y-037846
X053340Y-037592
X050495Y-039319
X057150Y-041758
X044145Y-044806
X041656Y-045060
X038151Y-039980
X038202Y-037948
X038049Y-034595
X038100Y-033680
X027534Y-027381
X024689Y-027026
X021133Y-028143
X025248Y-025654
X022149Y-022454
X020574Y-024536
X020574Y-021641
X018593Y-027686
X017577Y-013106
X016612Y-011989
X007468Y-010211
X007366Y-045415
X006299Y-042062
X001072Y-004628
X001072Y-008184
X001072Y-011740
X001072Y-015296
X001072Y-018852
X001072Y-022408
X001072Y-025964
X001072Y-029520
X001072Y-033076
X001072Y-036632
X001072Y-040188
X004628Y-001072
X004628Y-004628
X004628Y-008184
X004628Y-011740
X004628Y-015296
X004628Y-040188
X004628Y-043744
X004628Y-047300
X008184Y-001072
X008184Y-004628
X008184Y-011740
X008184Y-015296
X008184Y-043744
X008184Y-047300
X011740Y-001072
X011740Y-004628
X011740Y-008184
X011740Y-011740
X011740Y-015296
X015296Y-050856
X018852Y-004628
X018852Y-008184
X018852Y-011740
X018852Y-015296
X022408Y-001072
X022408Y-004628
X022408Y-008184
X022408Y-011740
X022408Y-047300
X025964Y-001072
X025964Y-008184
X025964Y-011740
X025964Y-047300
X029520Y-001072
X029520Y-043744
X033076Y-001072
X033076Y-008184
X033076Y-011740
X033076Y-040188
X033076Y-047300
X036632Y-001072
X036632Y-011740
X036632Y-015296
X036632Y-047300
X040188Y-001072
X040188Y-004628
X040188Y-011740
X040188Y-015296
X040188Y-022408
X040188Y-047300
X043744Y-001072
X043744Y-004628
X043744Y-011740
X043744Y-036632
X043744Y-043744
X043744Y-047300
X047300Y-001072
X047300Y-004628
X047300Y-008184
X047300Y-011740
X047300Y-033076
X047300Y-036632
X047300Y-047300
X050856Y-001072
X050856Y-004628
X050856Y-008184
X050856Y-047300
X054412Y-001072
X054412Y-004628
X054412Y-008184
X054412Y-018852
X054412Y-033076
X054412Y-040188
X057968Y-001072
X057968Y-004628
X057968Y-008184
X057968Y-011740
X057968Y-018852
X057968Y-025964
X057968Y-033076
X057968Y-036632
X057968Y-040188
X057968Y-050856
X061524Y-008184
X061524Y-018852
X061524Y-047300
X061524Y-050856
X065080Y-008184
X065080Y-015296
X065080Y-018852
X065080Y-033076
X065080Y-036632
X065080Y-040188
X065080Y-047300
X065080Y-050856
X068636Y-001072
X068636Y-004628
X068636Y-015296
X068636Y-018852
X068636Y-033076
X068636Y-036632
X068636Y-040188
X068636Y-047300
X072192Y-001072
X072192Y-004628
X072192Y-011740
X072192Y-015296
X072192Y-018852
X072192Y-022408
X072192Y-025964
X072192Y-029520
X072192Y-033076
X072192Y-036632
X072192Y-043744
X072192Y-047300
X075748Y-008184
X075748Y-011740
X075748Y-015296
X075748Y-018852
X075748Y-022408
X075748Y-025964
X075748Y-029520
X075748Y-033076
X075748Y-036632
X075748Y-040188
X075748Y-043744
T03
X041097Y-003251
X039599Y-003251
X038100Y-003251
X028346Y-007671
X037389Y-028296
X031496Y-024892
X049835Y-042570
T04
X035220Y-006330G85X035220Y-007430
X035220Y-002300G85X035220Y-003100
X043860Y-002300G85X043860Y-003100
X043860Y-006330G85X043860Y-007430
M30
