G04 Layer: TopSolderMaskLayer*
G04 EasyEDA v6.5.28, 2023-10-08 00:58:30*
G04 dae76cc8a077448fa0b369602e060784,f778c3a0cbec4862bbcf1335ede1f8c1,10*
G04 Gerber Generator version 0.2*
G04 Scale: 100 percent, Rotated: No, Reflected: No *
G04 Dimensions in millimeters *
G04 leading zeros omitted , absolute positions ,4 integer and 5 decimal *
%FSLAX45Y45*%
%MOMM*%

%AMMACRO1*1,1,$1,$2,$3*1,1,$1,$4,$5*1,1,$1,0-$2,0-$3*1,1,$1,0-$4,0-$5*20,1,$1,$2,$3,$4,$5,0*20,1,$1,$4,$5,0-$2,0-$3,0*20,1,$1,0-$2,0-$3,0-$4,0-$5,0*20,1,$1,0-$4,0-$5,$2,$3,0*4,1,4,$2,$3,$4,$5,0-$2,0-$3,0-$4,0-$5,$2,$3,0*%
%ADD10O,1.1000232X2.200021*%
%ADD11O,1.1000232X1.9000215999999999*%
%ADD12MACRO1,0.1016X-0.375X-0.15X-0.375X0.15*%
%ADD13R,0.8516X0.4016*%
%ADD14MACRO1,0.1016X-0.21X0.1X0.21X0.1*%

%LPD*%
D10*
G01*
X3521989Y-688009D03*
D11*
G01*
X3521989Y-270002D03*
G01*
X4385995Y-270002D03*
D10*
G01*
X4385995Y-688009D03*
D12*
G01*
X1546478Y-1622480D03*
G01*
X1361483Y-1622480D03*
D13*
G01*
X1546504Y-2617470D03*
D12*
G01*
X1361500Y-2617497D03*
D14*
G01*
X1552969Y-2379990D03*
G01*
X1354999Y-2379990D03*
G01*
X1552969Y-2339985D03*
G01*
X1354999Y-2339985D03*
G01*
X1552969Y-2299980D03*
G01*
X1354999Y-2299980D03*
G01*
X1552969Y-2259975D03*
G01*
X1354999Y-2259975D03*
G01*
X1552969Y-2219970D03*
G01*
X1354999Y-2219970D03*
G01*
X1552969Y-2179990D03*
G01*
X1354999Y-2179990D03*
G01*
X1552969Y-2139985D03*
G01*
X1354999Y-2139985D03*
G01*
X1552969Y-2099980D03*
G01*
X1354999Y-2099980D03*
G01*
X1552969Y-2059975D03*
G01*
X1354999Y-2059975D03*
G01*
X1552969Y-2019970D03*
G01*
X1354999Y-2019970D03*
G01*
X1552969Y-1979990D03*
G01*
X1354999Y-1979990D03*
G01*
X1552969Y-1939985D03*
G01*
X1354999Y-1939985D03*
G01*
X1552969Y-1899980D03*
G01*
X1354999Y-1899980D03*
G01*
X1552969Y-1859975D03*
G01*
X1354999Y-1859975D03*
G01*
X1552969Y-1819970D03*
G01*
X1354999Y-1819970D03*
G01*
X1552969Y-1779965D03*
G01*
X1354999Y-1779965D03*
G01*
X1552969Y-1739986D03*
G01*
X1354999Y-1739986D03*
G01*
X1354999Y-2419969D03*
G01*
X1552992Y-2419969D03*
G01*
X1354999Y-2459974D03*
G01*
X1552992Y-2459974D03*
G01*
X1354999Y-2499979D03*
G01*
X1552992Y-2499979D03*
M02*
