G04 Layer: TopLayer*
G04 EasyEDA v6.5.28, 2023-10-08 00:58:30*
G04 dae76cc8a077448fa0b369602e060784,f778c3a0cbec4862bbcf1335ede1f8c1,10*
G04 Gerber Generator version 0.2*
G04 Scale: 100 percent, Rotated: No, Reflected: No *
G04 Dimensions in millimeters *
G04 leading zeros omitted , absolute positions ,4 integer and 5 decimal *
%FSLAX45Y45*%
%MOMM*%

%ADD10C,0.1524*%
%ADD11C,0.2540*%
%ADD12C,0.3048*%
%ADD13C,0.6096*%
%ADD14C,0.2032*%
%ADD15R,0.7500X0.3000*%
%ADD16R,0.4200X0.2000*%
%ADD17O,0.9999979999999999X2.0999958*%
%ADD18O,0.9999979999999999X1.7999964*%
%ADD19C,0.4572*%
%ADD20C,0.8128*%
%ADD21C,0.0124*%

%LPD*%
G36*
X1400149Y-5184089D02*
G01*
X1348435Y-5183124D01*
X1297127Y-5180228D01*
X1245971Y-5175402D01*
X1195019Y-5168696D01*
X1144371Y-5160111D01*
X1094028Y-5149596D01*
X1044194Y-5137200D01*
X994816Y-5122976D01*
X945997Y-5106924D01*
X897788Y-5089042D01*
X850341Y-5069332D01*
X803656Y-5047945D01*
X757783Y-5024780D01*
X712774Y-4999888D01*
X668782Y-4973370D01*
X625805Y-4945227D01*
X583895Y-4915458D01*
X543102Y-4884166D01*
X503580Y-4851400D01*
X465226Y-4817160D01*
X428243Y-4781499D01*
X392582Y-4744466D01*
X358343Y-4706162D01*
X325577Y-4666589D01*
X294284Y-4625797D01*
X264566Y-4583887D01*
X236423Y-4540910D01*
X209905Y-4496866D01*
X185064Y-4451908D01*
X161899Y-4406036D01*
X140512Y-4359300D01*
X120853Y-4311853D01*
X102971Y-4263644D01*
X86918Y-4214825D01*
X72694Y-4165447D01*
X60299Y-4115562D01*
X49834Y-4065270D01*
X41249Y-4014622D01*
X34544Y-3963670D01*
X29768Y-3912514D01*
X26873Y-3861206D01*
X25908Y-3809695D01*
X25908Y-310692D01*
X26873Y-287324D01*
X29514Y-265176D01*
X33883Y-243332D01*
X39979Y-221843D01*
X47701Y-200914D01*
X57099Y-180695D01*
X68021Y-161239D01*
X80416Y-142748D01*
X94234Y-125222D01*
X109423Y-108864D01*
X125831Y-93776D01*
X143357Y-79959D01*
X161899Y-67614D01*
X181406Y-56743D01*
X201676Y-47396D01*
X222605Y-39725D01*
X244043Y-33680D01*
X265938Y-29362D01*
X288086Y-26771D01*
X310642Y-25908D01*
X7597292Y-25908D01*
X7620660Y-26873D01*
X7642809Y-29514D01*
X7664653Y-33883D01*
X7686141Y-39979D01*
X7707071Y-47701D01*
X7727289Y-57099D01*
X7746746Y-68021D01*
X7765237Y-80416D01*
X7782763Y-94234D01*
X7799120Y-109423D01*
X7814208Y-125831D01*
X7828025Y-143357D01*
X7840370Y-161899D01*
X7851241Y-181406D01*
X7860588Y-201676D01*
X7868259Y-222605D01*
X7874304Y-244043D01*
X7878622Y-265938D01*
X7881213Y-288086D01*
X7882077Y-310642D01*
X7882077Y-3809695D01*
X7881112Y-3861562D01*
X7878216Y-3912870D01*
X7873390Y-3964025D01*
X7866684Y-4014978D01*
X7858099Y-4065625D01*
X7847584Y-4115968D01*
X7835188Y-4165803D01*
X7820964Y-4215180D01*
X7804912Y-4263999D01*
X7787030Y-4312208D01*
X7767320Y-4359656D01*
X7745933Y-4406341D01*
X7722768Y-4452213D01*
X7697876Y-4497222D01*
X7671358Y-4541215D01*
X7643215Y-4584192D01*
X7613446Y-4626102D01*
X7582153Y-4666894D01*
X7549388Y-4706416D01*
X7515148Y-4744770D01*
X7479487Y-4781753D01*
X7442453Y-4817414D01*
X7404150Y-4851654D01*
X7364577Y-4884420D01*
X7323785Y-4915712D01*
X7281875Y-4945430D01*
X7238898Y-4973574D01*
X7194854Y-5000091D01*
X7149896Y-5024932D01*
X7104024Y-5048097D01*
X7057288Y-5069484D01*
X7009841Y-5089144D01*
X6961631Y-5107025D01*
X6912813Y-5123078D01*
X6863435Y-5137302D01*
X6813550Y-5149697D01*
X6763258Y-5160162D01*
X6712610Y-5168747D01*
X6661658Y-5175453D01*
X6610502Y-5180228D01*
X6559194Y-5183124D01*
X6507683Y-5184089D01*
G37*

%LPC*%
G36*
X4417364Y-218643D02*
G01*
X4461002Y-218643D01*
X4458512Y-207619D01*
X4454347Y-197053D01*
X4448708Y-187248D01*
X4441596Y-178358D01*
X4433316Y-170688D01*
X4423918Y-164287D01*
X4417364Y-161086D01*
G37*
G36*
X6653987Y-5048605D02*
G01*
X6670649Y-5047640D01*
X6687058Y-5044846D01*
X6703059Y-5040274D01*
X6718452Y-5033873D01*
X6733031Y-5025796D01*
X6746646Y-5016195D01*
X6759041Y-5005070D01*
X6770166Y-4992624D01*
X6779818Y-4979060D01*
X6787896Y-4964480D01*
X6794246Y-4949088D01*
X6798868Y-4933035D01*
X6801662Y-4916627D01*
X6802577Y-4900015D01*
X6801662Y-4883353D01*
X6798868Y-4866944D01*
X6794246Y-4850892D01*
X6787896Y-4835499D01*
X6779818Y-4820920D01*
X6770166Y-4807356D01*
X6759041Y-4794910D01*
X6746646Y-4783836D01*
X6733031Y-4774184D01*
X6718452Y-4766106D01*
X6703059Y-4759706D01*
X6687058Y-4755134D01*
X6670649Y-4752340D01*
X6653987Y-4751374D01*
X6637324Y-4752340D01*
X6620916Y-4755134D01*
X6604914Y-4759706D01*
X6589522Y-4766106D01*
X6574942Y-4774184D01*
X6561328Y-4783836D01*
X6548932Y-4794910D01*
X6537807Y-4807356D01*
X6528155Y-4820920D01*
X6520129Y-4835499D01*
X6513728Y-4850892D01*
X6509105Y-4866944D01*
X6506311Y-4883353D01*
X6505397Y-4900015D01*
X6506311Y-4916627D01*
X6509105Y-4933035D01*
X6513728Y-4949088D01*
X6520129Y-4964480D01*
X6528155Y-4979060D01*
X6537807Y-4992624D01*
X6548932Y-5005070D01*
X6561328Y-5016195D01*
X6574942Y-5025796D01*
X6589522Y-5033873D01*
X6604914Y-5040274D01*
X6620916Y-5044846D01*
X6637324Y-5047640D01*
G37*
G36*
X1253998Y-5048605D02*
G01*
X1270660Y-5047640D01*
X1287068Y-5044846D01*
X1303070Y-5040274D01*
X1318463Y-5033873D01*
X1333042Y-5025796D01*
X1346657Y-5016195D01*
X1359052Y-5005070D01*
X1370177Y-4992624D01*
X1379829Y-4979060D01*
X1387906Y-4964480D01*
X1394256Y-4949088D01*
X1398879Y-4933035D01*
X1401673Y-4916627D01*
X1402588Y-4900015D01*
X1401673Y-4883353D01*
X1398879Y-4866944D01*
X1394256Y-4850892D01*
X1387906Y-4835499D01*
X1379829Y-4820920D01*
X1370177Y-4807356D01*
X1359052Y-4794910D01*
X1346657Y-4783836D01*
X1333042Y-4774184D01*
X1318463Y-4766106D01*
X1303070Y-4759706D01*
X1287068Y-4755134D01*
X1270660Y-4752340D01*
X1253998Y-4751374D01*
X1237335Y-4752340D01*
X1220927Y-4755134D01*
X1204925Y-4759706D01*
X1189532Y-4766106D01*
X1174953Y-4774184D01*
X1161338Y-4783836D01*
X1148943Y-4794910D01*
X1137818Y-4807356D01*
X1128166Y-4820920D01*
X1120140Y-4835499D01*
X1113739Y-4850892D01*
X1109116Y-4866944D01*
X1106322Y-4883353D01*
X1105408Y-4900015D01*
X1106322Y-4916627D01*
X1109116Y-4933035D01*
X1113739Y-4949088D01*
X1120140Y-4964480D01*
X1128166Y-4979060D01*
X1137818Y-4992624D01*
X1148943Y-5005070D01*
X1161338Y-5016195D01*
X1174953Y-5025796D01*
X1189532Y-5033873D01*
X1204925Y-5040274D01*
X1220927Y-5044846D01*
X1237335Y-5047640D01*
G37*
G36*
X3446983Y-218643D02*
G01*
X3490620Y-218643D01*
X3490620Y-161086D01*
X3484067Y-164287D01*
X3474669Y-170688D01*
X3466388Y-178358D01*
X3459276Y-187248D01*
X3453637Y-197053D01*
X3449472Y-207619D01*
G37*
G36*
X4310989Y-218643D02*
G01*
X4354626Y-218643D01*
X4354626Y-161086D01*
X4348073Y-164287D01*
X4338675Y-170688D01*
X4330344Y-178358D01*
X4323283Y-187248D01*
X4317644Y-197053D01*
X4313478Y-207619D01*
G37*
G36*
X3553358Y-218643D02*
G01*
X3596995Y-218643D01*
X3594506Y-207619D01*
X3590340Y-197053D01*
X3584701Y-187248D01*
X3577640Y-178358D01*
X3569309Y-170688D01*
X3559911Y-164287D01*
X3553358Y-161086D01*
G37*
G36*
X1509979Y-227431D02*
G01*
X1519986Y-227431D01*
X1529943Y-225755D01*
X1539443Y-222504D01*
X1548282Y-217728D01*
X1556207Y-211531D01*
X1563014Y-204165D01*
X1568500Y-195732D01*
X1572564Y-186537D01*
X1575003Y-176784D01*
X1575866Y-166776D01*
X1575003Y-156718D01*
X1572564Y-146964D01*
X1568500Y-137769D01*
X1563014Y-129336D01*
X1556207Y-121970D01*
X1548282Y-115773D01*
X1539443Y-110998D01*
X1529943Y-107746D01*
X1519986Y-106070D01*
X1509979Y-106070D01*
X1500022Y-107746D01*
X1490522Y-110998D01*
X1481683Y-115773D01*
X1473758Y-121970D01*
X1466951Y-129336D01*
X1461465Y-137769D01*
X1457401Y-146964D01*
X1454962Y-156718D01*
X1454099Y-166776D01*
X1454962Y-176784D01*
X1457401Y-186537D01*
X1461465Y-195732D01*
X1466951Y-204165D01*
X1473758Y-211531D01*
X1481683Y-217728D01*
X1490522Y-222504D01*
X1500022Y-225755D01*
G37*
G36*
X2473960Y-4521657D02*
G01*
X2483764Y-4520793D01*
X2493213Y-4518253D01*
X2502154Y-4514138D01*
X2510180Y-4508500D01*
X2517140Y-4501540D01*
X2522778Y-4493514D01*
X2526893Y-4484573D01*
X2529433Y-4475124D01*
X2530297Y-4465320D01*
X2529433Y-4455515D01*
X2526893Y-4446066D01*
X2522778Y-4437126D01*
X2517140Y-4429099D01*
X2510180Y-4422140D01*
X2502154Y-4416501D01*
X2493213Y-4412386D01*
X2483764Y-4409846D01*
X2473960Y-4408982D01*
X2464155Y-4409846D01*
X2454706Y-4412386D01*
X2445766Y-4416501D01*
X2437739Y-4422140D01*
X2430780Y-4429099D01*
X2425141Y-4437126D01*
X2421026Y-4446066D01*
X2418486Y-4455515D01*
X2417622Y-4465320D01*
X2418486Y-4475124D01*
X2421026Y-4484573D01*
X2425141Y-4493514D01*
X2430780Y-4501540D01*
X2437739Y-4508500D01*
X2445766Y-4514138D01*
X2454706Y-4518253D01*
X2464155Y-4520793D01*
G37*
G36*
X3954018Y-4491583D02*
G01*
X3972153Y-4490669D01*
X3990086Y-4487824D01*
X4007612Y-4483100D01*
X4024579Y-4476597D01*
X4040784Y-4468317D01*
X4056024Y-4458462D01*
X4070146Y-4446981D01*
X4082999Y-4434179D01*
X4094429Y-4420057D01*
X4104335Y-4404817D01*
X4112564Y-4388612D01*
X4119067Y-4371644D01*
X4123791Y-4354068D01*
X4126636Y-4336135D01*
X4127601Y-4318000D01*
X4126636Y-4299864D01*
X4123791Y-4281932D01*
X4119067Y-4264355D01*
X4112564Y-4247388D01*
X4104335Y-4231182D01*
X4094429Y-4215942D01*
X4082999Y-4201820D01*
X4070146Y-4189018D01*
X4056024Y-4177537D01*
X4040784Y-4167682D01*
X4024579Y-4159402D01*
X4007612Y-4152900D01*
X3990086Y-4148175D01*
X3972153Y-4145330D01*
X3954018Y-4144416D01*
X3935831Y-4145330D01*
X3917899Y-4148175D01*
X3900373Y-4152900D01*
X3883406Y-4159402D01*
X3867200Y-4167682D01*
X3851960Y-4177537D01*
X3837838Y-4189018D01*
X3824986Y-4201820D01*
X3813556Y-4215942D01*
X3803650Y-4231182D01*
X3795420Y-4247388D01*
X3788918Y-4264355D01*
X3784193Y-4281932D01*
X3781348Y-4299864D01*
X3780383Y-4318000D01*
X3781348Y-4336135D01*
X3784193Y-4354068D01*
X3788918Y-4371644D01*
X3795420Y-4388612D01*
X3803650Y-4404817D01*
X3813556Y-4420057D01*
X3824986Y-4434179D01*
X3837838Y-4446981D01*
X3851960Y-4458462D01*
X3867200Y-4468317D01*
X3883406Y-4476597D01*
X3900373Y-4483100D01*
X3917899Y-4487824D01*
X3935831Y-4490669D01*
G37*
G36*
X1679956Y-227431D02*
G01*
X1690014Y-227431D01*
X1699920Y-225755D01*
X1709420Y-222504D01*
X1718259Y-217728D01*
X1726234Y-211531D01*
X1733042Y-204165D01*
X1738528Y-195732D01*
X1742541Y-186537D01*
X1745030Y-176784D01*
X1745843Y-166776D01*
X1745030Y-156718D01*
X1742541Y-146964D01*
X1738528Y-137769D01*
X1733042Y-129336D01*
X1726234Y-121970D01*
X1718259Y-115773D01*
X1709420Y-110998D01*
X1699920Y-107746D01*
X1690014Y-106070D01*
X1679956Y-106070D01*
X1670050Y-107746D01*
X1660550Y-110998D01*
X1651711Y-115773D01*
X1643735Y-121970D01*
X1636928Y-129336D01*
X1631442Y-137769D01*
X1627428Y-146964D01*
X1624939Y-156718D01*
X1624126Y-166776D01*
X1624939Y-176784D01*
X1627428Y-186537D01*
X1631442Y-195732D01*
X1636928Y-204165D01*
X1643735Y-211531D01*
X1651711Y-217728D01*
X1660550Y-222504D01*
X1670050Y-225755D01*
G37*
G36*
X6379972Y-227431D02*
G01*
X6389979Y-227431D01*
X6399936Y-225755D01*
X6409436Y-222504D01*
X6418275Y-217728D01*
X6426200Y-211531D01*
X6433007Y-204165D01*
X6438493Y-195732D01*
X6442557Y-186537D01*
X6444996Y-176784D01*
X6445859Y-166776D01*
X6444996Y-156718D01*
X6442557Y-146964D01*
X6438493Y-137769D01*
X6433007Y-129336D01*
X6426200Y-121970D01*
X6418275Y-115773D01*
X6409436Y-110998D01*
X6399936Y-107746D01*
X6389979Y-106070D01*
X6379972Y-106070D01*
X6370015Y-107746D01*
X6360515Y-110998D01*
X6351676Y-115773D01*
X6343751Y-121970D01*
X6336944Y-129336D01*
X6331458Y-137769D01*
X6327394Y-146964D01*
X6324955Y-156718D01*
X6324092Y-166776D01*
X6324955Y-176784D01*
X6327394Y-186537D01*
X6331458Y-195732D01*
X6336944Y-204165D01*
X6343751Y-211531D01*
X6351676Y-217728D01*
X6360515Y-222504D01*
X6370015Y-225755D01*
G37*
G36*
X2525268Y-4181348D02*
G01*
X3428492Y-4181348D01*
X3437026Y-4180484D01*
X3444748Y-4178147D01*
X3451809Y-4174388D01*
X3458464Y-4168952D01*
X3585514Y-4041901D01*
X3590950Y-4035247D01*
X3594709Y-4028186D01*
X3597808Y-4018534D01*
X3602177Y-4009694D01*
X3604666Y-4001058D01*
X3605479Y-3992118D01*
X3604666Y-3983177D01*
X3602177Y-3974541D01*
X3598164Y-3966464D01*
X3592779Y-3959301D01*
X3586124Y-3953256D01*
X3578504Y-3948480D01*
X3570071Y-3945229D01*
X3561283Y-3943604D01*
X3552291Y-3943604D01*
X3543452Y-3945229D01*
X3535019Y-3948480D01*
X3527399Y-3953256D01*
X3520744Y-3959301D01*
X3515360Y-3966464D01*
X3511346Y-3974541D01*
X3508857Y-3983177D01*
X3508044Y-3992118D01*
X3508501Y-3997299D01*
X3507943Y-4001668D01*
X3505606Y-4005427D01*
X3414928Y-4096054D01*
X3411626Y-4098290D01*
X3407765Y-4099051D01*
X2545994Y-4099051D01*
X2542133Y-4098290D01*
X2538831Y-4096054D01*
X2446985Y-4004259D01*
X2445410Y-4002176D01*
X2444394Y-3999839D01*
X2443175Y-3995623D01*
X2439162Y-3987546D01*
X2433777Y-3980383D01*
X2427122Y-3974337D01*
X2419502Y-3969562D01*
X2411069Y-3966311D01*
X2402281Y-3964686D01*
X2393289Y-3964686D01*
X2384450Y-3966311D01*
X2376017Y-3969562D01*
X2368397Y-3974337D01*
X2361742Y-3980383D01*
X2356358Y-3987546D01*
X2352344Y-3995623D01*
X2349855Y-4004259D01*
X2349042Y-4013200D01*
X2349855Y-4022140D01*
X2352344Y-4030776D01*
X2356358Y-4038854D01*
X2361742Y-4046016D01*
X2368397Y-4052062D01*
X2376017Y-4056786D01*
X2385568Y-4060444D01*
X2389124Y-4062729D01*
X2495296Y-4168952D01*
X2501950Y-4174388D01*
X2509012Y-4178147D01*
X2516733Y-4180484D01*
G37*
G36*
X6209944Y-227431D02*
G01*
X6220002Y-227431D01*
X6229908Y-225755D01*
X6239408Y-222504D01*
X6248247Y-217728D01*
X6256223Y-211531D01*
X6263030Y-204165D01*
X6268516Y-195732D01*
X6272530Y-186537D01*
X6275019Y-176784D01*
X6275832Y-166776D01*
X6275019Y-156718D01*
X6272530Y-146964D01*
X6268516Y-137769D01*
X6263030Y-129336D01*
X6256223Y-121970D01*
X6248247Y-115773D01*
X6239408Y-110998D01*
X6229908Y-107746D01*
X6220002Y-106070D01*
X6209944Y-106070D01*
X6200038Y-107746D01*
X6190538Y-110998D01*
X6181699Y-115773D01*
X6173724Y-121970D01*
X6166916Y-129336D01*
X6161430Y-137769D01*
X6157417Y-146964D01*
X6154928Y-156718D01*
X6154115Y-166776D01*
X6154928Y-176784D01*
X6157417Y-186537D01*
X6161430Y-195732D01*
X6166916Y-204165D01*
X6173724Y-211531D01*
X6181699Y-217728D01*
X6190538Y-222504D01*
X6200038Y-225755D01*
G37*
G36*
X3490620Y-378866D02*
G01*
X3490620Y-321360D01*
X3446983Y-321360D01*
X3449472Y-332333D01*
X3453637Y-342900D01*
X3459276Y-352755D01*
X3466388Y-361594D01*
X3474669Y-369316D01*
X3484067Y-375716D01*
G37*
G36*
X4354626Y-378866D02*
G01*
X4354626Y-321360D01*
X4310989Y-321360D01*
X4313478Y-332333D01*
X4317644Y-342900D01*
X4323283Y-352755D01*
X4330344Y-361594D01*
X4338675Y-369316D01*
X4348073Y-375716D01*
G37*
G36*
X4417364Y-378866D02*
G01*
X4423918Y-375716D01*
X4433316Y-369316D01*
X4441596Y-361594D01*
X4448708Y-352755D01*
X4454347Y-342900D01*
X4458512Y-332333D01*
X4461002Y-321360D01*
X4417364Y-321360D01*
G37*
G36*
X3553358Y-378866D02*
G01*
X3559911Y-375716D01*
X3569309Y-369316D01*
X3577640Y-361594D01*
X3584701Y-352755D01*
X3590340Y-342900D01*
X3594506Y-332333D01*
X3596995Y-321360D01*
X3553358Y-321360D01*
G37*
G36*
X300024Y-448614D02*
G01*
X316636Y-447649D01*
X333044Y-444855D01*
X349097Y-440283D01*
X364490Y-433882D01*
X379069Y-425805D01*
X392633Y-416204D01*
X405079Y-405079D01*
X416204Y-392633D01*
X425805Y-379069D01*
X433882Y-364490D01*
X440283Y-349097D01*
X444855Y-333044D01*
X447649Y-316636D01*
X448614Y-300024D01*
X447649Y-283362D01*
X444855Y-266954D01*
X440283Y-250901D01*
X433882Y-235508D01*
X425805Y-220929D01*
X416204Y-207365D01*
X405079Y-194919D01*
X392633Y-183845D01*
X379069Y-174193D01*
X364490Y-166116D01*
X349097Y-159715D01*
X333044Y-155143D01*
X316636Y-152349D01*
X300024Y-151384D01*
X283362Y-152349D01*
X266954Y-155143D01*
X250901Y-159715D01*
X235508Y-166116D01*
X220929Y-174193D01*
X207365Y-183845D01*
X194919Y-194919D01*
X183845Y-207365D01*
X174193Y-220929D01*
X166116Y-235508D01*
X159715Y-250901D01*
X155143Y-266954D01*
X152349Y-283362D01*
X151384Y-300024D01*
X152349Y-316636D01*
X155143Y-333044D01*
X159715Y-349097D01*
X166116Y-364490D01*
X174193Y-379069D01*
X183845Y-392633D01*
X194919Y-405079D01*
X207365Y-416204D01*
X220929Y-425805D01*
X235508Y-433882D01*
X250901Y-440283D01*
X266954Y-444855D01*
X283362Y-447649D01*
G37*
G36*
X7608011Y-448614D02*
G01*
X7624622Y-447649D01*
X7641031Y-444855D01*
X7657084Y-440283D01*
X7672476Y-433882D01*
X7687056Y-425805D01*
X7700619Y-416204D01*
X7713065Y-405079D01*
X7724190Y-392633D01*
X7733792Y-379069D01*
X7741869Y-364490D01*
X7748270Y-349097D01*
X7752842Y-333044D01*
X7755636Y-316636D01*
X7756601Y-300024D01*
X7755636Y-283362D01*
X7752842Y-266954D01*
X7748270Y-250901D01*
X7741869Y-235508D01*
X7733792Y-220929D01*
X7724190Y-207365D01*
X7713065Y-194919D01*
X7700619Y-183845D01*
X7687056Y-174193D01*
X7672476Y-166116D01*
X7657084Y-159715D01*
X7641031Y-155143D01*
X7624622Y-152349D01*
X7608011Y-151384D01*
X7591348Y-152349D01*
X7574940Y-155143D01*
X7558887Y-159715D01*
X7543495Y-166116D01*
X7528915Y-174193D01*
X7515352Y-183845D01*
X7502906Y-194919D01*
X7491831Y-207365D01*
X7482179Y-220929D01*
X7474102Y-235508D01*
X7467701Y-250901D01*
X7463129Y-266954D01*
X7460335Y-283362D01*
X7459370Y-300024D01*
X7460335Y-316636D01*
X7463129Y-333044D01*
X7467701Y-349097D01*
X7474102Y-364490D01*
X7482179Y-379069D01*
X7491831Y-392633D01*
X7502906Y-405079D01*
X7515352Y-416204D01*
X7528915Y-425805D01*
X7543495Y-433882D01*
X7558887Y-440283D01*
X7574940Y-444855D01*
X7591348Y-447649D01*
G37*
G36*
X4417364Y-629158D02*
G01*
X4461560Y-629158D01*
X4461002Y-621690D01*
X4458512Y-610616D01*
X4454347Y-600100D01*
X4448708Y-590245D01*
X4441596Y-581406D01*
X4433316Y-573684D01*
X4423918Y-567283D01*
X4417364Y-564134D01*
G37*
G36*
X3446424Y-629158D02*
G01*
X3490620Y-629158D01*
X3490620Y-564134D01*
X3484067Y-567283D01*
X3474669Y-573684D01*
X3466388Y-581406D01*
X3459276Y-590245D01*
X3453637Y-600100D01*
X3449472Y-610616D01*
X3446983Y-621690D01*
G37*
G36*
X4245457Y-696315D02*
G01*
X4255312Y-695096D01*
X4264761Y-692200D01*
X4273600Y-687730D01*
X4281576Y-681837D01*
X4288383Y-674674D01*
X4293971Y-666496D01*
X4298035Y-657453D01*
X4300524Y-647903D01*
X4301337Y-638454D01*
X4302353Y-634847D01*
X4304588Y-631850D01*
X4307738Y-629869D01*
X4311446Y-629158D01*
X4354626Y-629158D01*
X4354626Y-564134D01*
X4348073Y-567283D01*
X4338675Y-573684D01*
X4330344Y-581406D01*
X4323283Y-590245D01*
X4317644Y-600100D01*
X4313428Y-610768D01*
X4311294Y-614070D01*
X4308094Y-616356D01*
X4304233Y-617220D01*
X4300321Y-616559D01*
X4297019Y-614476D01*
X4294733Y-611225D01*
X4293971Y-609549D01*
X4288383Y-601370D01*
X4281576Y-594207D01*
X4273600Y-588314D01*
X4264761Y-583844D01*
X4255312Y-580948D01*
X4245457Y-579729D01*
X4235602Y-580136D01*
X4225899Y-582218D01*
X4216704Y-585927D01*
X4208272Y-591108D01*
X4200855Y-597611D01*
X4194657Y-605332D01*
X4189780Y-613968D01*
X4186529Y-623316D01*
X4184853Y-633069D01*
X4184853Y-642975D01*
X4186529Y-652729D01*
X4189780Y-662076D01*
X4194657Y-670712D01*
X4200855Y-678434D01*
X4208272Y-684936D01*
X4216704Y-690118D01*
X4225899Y-693826D01*
X4235602Y-695909D01*
G37*
G36*
X3666490Y-696315D02*
G01*
X3676294Y-695096D01*
X3685743Y-692200D01*
X3694582Y-687730D01*
X3702558Y-681837D01*
X3709415Y-674674D01*
X3714953Y-666496D01*
X3719017Y-657453D01*
X3721557Y-647903D01*
X3722370Y-638048D01*
X3721557Y-628142D01*
X3719017Y-618591D01*
X3714953Y-609549D01*
X3709415Y-601370D01*
X3702558Y-594207D01*
X3694582Y-588314D01*
X3685743Y-583844D01*
X3676294Y-580948D01*
X3666490Y-579729D01*
X3656584Y-580136D01*
X3646932Y-582218D01*
X3637737Y-585927D01*
X3629304Y-591108D01*
X3621836Y-597611D01*
X3615639Y-605332D01*
X3612489Y-610971D01*
X3610051Y-613918D01*
X3606698Y-615696D01*
X3602939Y-616153D01*
X3599230Y-615188D01*
X3596182Y-612952D01*
X3594150Y-609752D01*
X3590340Y-600100D01*
X3584701Y-590245D01*
X3577640Y-581406D01*
X3569309Y-573684D01*
X3559911Y-567283D01*
X3553358Y-564134D01*
X3553358Y-629158D01*
X3595674Y-629158D01*
X3599586Y-629920D01*
X3602888Y-632155D01*
X3605072Y-635406D01*
X3605834Y-639318D01*
X3605834Y-642975D01*
X3607511Y-652729D01*
X3610813Y-662076D01*
X3615639Y-670712D01*
X3621836Y-678434D01*
X3629304Y-684936D01*
X3637737Y-690118D01*
X3646932Y-693826D01*
X3656584Y-695909D01*
G37*
G36*
X4354626Y-811885D02*
G01*
X4354626Y-746861D01*
X4310380Y-746861D01*
X4310938Y-754329D01*
X4313478Y-765352D01*
X4317644Y-775919D01*
X4323283Y-785774D01*
X4330344Y-794613D01*
X4338675Y-802335D01*
X4348073Y-808736D01*
G37*
G36*
X3490620Y-811885D02*
G01*
X3490620Y-746861D01*
X3446424Y-746861D01*
X3446983Y-754329D01*
X3449472Y-765352D01*
X3453637Y-775919D01*
X3459276Y-785774D01*
X3466388Y-794613D01*
X3474669Y-802335D01*
X3484067Y-808736D01*
G37*
G36*
X4417364Y-811885D02*
G01*
X4423918Y-808736D01*
X4433316Y-802335D01*
X4441596Y-794613D01*
X4448708Y-785774D01*
X4454347Y-775919D01*
X4458512Y-765352D01*
X4461002Y-754329D01*
X4461560Y-746861D01*
X4417364Y-746861D01*
G37*
G36*
X3553358Y-811885D02*
G01*
X3559911Y-808736D01*
X3569309Y-802335D01*
X3577640Y-794613D01*
X3584701Y-785774D01*
X3590340Y-775919D01*
X3594506Y-765352D01*
X3597046Y-754329D01*
X3597605Y-746861D01*
X3553358Y-746861D01*
G37*
G36*
X7024014Y-1073607D02*
G01*
X7042150Y-1072642D01*
X7060082Y-1069797D01*
X7077608Y-1065072D01*
X7094575Y-1058570D01*
X7110780Y-1050340D01*
X7126020Y-1040434D01*
X7140143Y-1029004D01*
X7152995Y-1016152D01*
X7164425Y-1002030D01*
X7174331Y-986790D01*
X7182561Y-970584D01*
X7189063Y-953617D01*
X7193788Y-936091D01*
X7196632Y-918159D01*
X7197598Y-900023D01*
X7196632Y-881837D01*
X7193788Y-863904D01*
X7189063Y-846378D01*
X7182561Y-829411D01*
X7174331Y-813206D01*
X7164425Y-797966D01*
X7152995Y-783844D01*
X7140143Y-770991D01*
X7126020Y-759561D01*
X7110780Y-749655D01*
X7094575Y-741426D01*
X7077608Y-734923D01*
X7060082Y-730199D01*
X7042150Y-727354D01*
X7024014Y-726389D01*
X7005828Y-727354D01*
X6987895Y-730199D01*
X6970369Y-734923D01*
X6953402Y-741426D01*
X6937197Y-749655D01*
X6921957Y-759561D01*
X6907834Y-770991D01*
X6894982Y-783844D01*
X6883552Y-797966D01*
X6873646Y-813206D01*
X6865416Y-829411D01*
X6858914Y-846378D01*
X6854190Y-863904D01*
X6851345Y-881837D01*
X6850380Y-900023D01*
X6851345Y-918159D01*
X6854190Y-936091D01*
X6858914Y-953617D01*
X6865416Y-970584D01*
X6873646Y-986790D01*
X6883552Y-1002030D01*
X6894982Y-1016152D01*
X6907834Y-1029004D01*
X6921957Y-1040434D01*
X6937197Y-1050340D01*
X6953402Y-1058570D01*
X6970369Y-1065072D01*
X6987895Y-1069797D01*
X7005828Y-1072642D01*
G37*
G36*
X954024Y-1073607D02*
G01*
X972159Y-1072642D01*
X990092Y-1069797D01*
X1007618Y-1065072D01*
X1024585Y-1058570D01*
X1040790Y-1050340D01*
X1056030Y-1040434D01*
X1070152Y-1029004D01*
X1083005Y-1016152D01*
X1094435Y-1002030D01*
X1104341Y-986790D01*
X1112570Y-970584D01*
X1119073Y-953617D01*
X1123797Y-936091D01*
X1126642Y-918159D01*
X1127607Y-900074D01*
X1126642Y-881837D01*
X1123797Y-863904D01*
X1119073Y-846378D01*
X1112570Y-829411D01*
X1104341Y-813206D01*
X1094435Y-797966D01*
X1083005Y-783844D01*
X1070152Y-770991D01*
X1056030Y-759561D01*
X1040790Y-749655D01*
X1024585Y-741426D01*
X1007618Y-734923D01*
X990092Y-730199D01*
X972159Y-727354D01*
X954024Y-726389D01*
X935837Y-727354D01*
X917905Y-730199D01*
X900379Y-734923D01*
X883412Y-741426D01*
X867206Y-749655D01*
X851966Y-759561D01*
X837844Y-770991D01*
X824992Y-783844D01*
X813562Y-797966D01*
X803656Y-813206D01*
X795426Y-829411D01*
X788924Y-846378D01*
X784199Y-863904D01*
X781354Y-881837D01*
X780389Y-899972D01*
X781354Y-918159D01*
X784199Y-936091D01*
X788924Y-953617D01*
X795426Y-970584D01*
X803656Y-986790D01*
X813562Y-1002030D01*
X824992Y-1016152D01*
X837844Y-1029004D01*
X851966Y-1040434D01*
X867206Y-1050340D01*
X883412Y-1058570D01*
X900379Y-1065072D01*
X917905Y-1069797D01*
X935837Y-1072642D01*
G37*
G36*
X3246526Y-1105408D02*
G01*
X4053332Y-1105408D01*
X4060799Y-1104646D01*
X4067454Y-1102461D01*
X4073651Y-1098905D01*
X4077817Y-1095298D01*
X4209237Y-963879D01*
X4214063Y-957935D01*
X4216908Y-952703D01*
X4218838Y-950214D01*
X4221835Y-947318D01*
X4227322Y-940053D01*
X4231335Y-931976D01*
X4233824Y-923340D01*
X4234637Y-914400D01*
X4233824Y-905459D01*
X4231335Y-896823D01*
X4227322Y-888746D01*
X4221937Y-881583D01*
X4215282Y-875537D01*
X4207662Y-870762D01*
X4199229Y-867511D01*
X4190441Y-865886D01*
X4181398Y-865886D01*
X4172610Y-867511D01*
X4164177Y-870762D01*
X4156557Y-875537D01*
X4149902Y-881583D01*
X4144518Y-888746D01*
X4140504Y-896823D01*
X4138015Y-905459D01*
X4137202Y-914400D01*
X4138015Y-923340D01*
X4140149Y-930808D01*
X4140504Y-934364D01*
X4139590Y-937818D01*
X4137558Y-940765D01*
X4042918Y-1035354D01*
X4039615Y-1037590D01*
X4035755Y-1038352D01*
X3264204Y-1038352D01*
X3260344Y-1037590D01*
X3257042Y-1035354D01*
X2962605Y-740918D01*
X2960370Y-737616D01*
X2959608Y-733755D01*
X2959608Y-533908D01*
X2958795Y-526440D01*
X2956661Y-519785D01*
X2953105Y-513588D01*
X2949498Y-509422D01*
X2875940Y-435813D01*
X2873908Y-432968D01*
X2872994Y-429564D01*
X2872384Y-422859D01*
X2870708Y-417068D01*
X2870454Y-412648D01*
X2872130Y-408533D01*
X2875381Y-405536D01*
X2879547Y-404164D01*
X2883966Y-404723D01*
X2887675Y-407111D01*
X2977489Y-496925D01*
X2981299Y-500380D01*
X2985160Y-503377D01*
X2989326Y-506018D01*
X2993694Y-508304D01*
X2998216Y-510184D01*
X3002940Y-511657D01*
X3007715Y-512724D01*
X3012592Y-513384D01*
X3017723Y-513588D01*
X3677716Y-513588D01*
X3682847Y-513384D01*
X3687724Y-512724D01*
X3692499Y-511657D01*
X3697224Y-510184D01*
X3701745Y-508304D01*
X3706114Y-506018D01*
X3710279Y-503377D01*
X3714140Y-500380D01*
X3717950Y-496925D01*
X3823004Y-391871D01*
X3825392Y-390093D01*
X3838498Y-385216D01*
X3842562Y-382879D01*
X3845001Y-381863D01*
X3847642Y-381508D01*
X3921760Y-381508D01*
X3926128Y-382473D01*
X3936288Y-387299D01*
X3946550Y-390296D01*
X3957167Y-391566D01*
X3967886Y-391160D01*
X3978351Y-389026D01*
X3988358Y-385216D01*
X3992422Y-382879D01*
X3994861Y-381863D01*
X3997502Y-381508D01*
X4071620Y-381508D01*
X4075988Y-382473D01*
X4086148Y-387299D01*
X4096410Y-390296D01*
X4107027Y-391566D01*
X4117746Y-391160D01*
X4128211Y-389026D01*
X4138218Y-385216D01*
X4147515Y-379882D01*
X4155795Y-373075D01*
X4162907Y-365099D01*
X4168597Y-356006D01*
X4172813Y-346202D01*
X4175353Y-335788D01*
X4176217Y-325120D01*
X4175353Y-314452D01*
X4172813Y-304038D01*
X4168597Y-294233D01*
X4162907Y-285140D01*
X4155795Y-277164D01*
X4147515Y-270357D01*
X4138218Y-265023D01*
X4128211Y-261213D01*
X4117746Y-259079D01*
X4107027Y-258673D01*
X4096410Y-259943D01*
X4086148Y-262940D01*
X4075937Y-267766D01*
X4071620Y-268732D01*
X3997502Y-268732D01*
X3994912Y-268376D01*
X3992422Y-267360D01*
X3988358Y-265023D01*
X3978351Y-261213D01*
X3967886Y-259079D01*
X3957167Y-258673D01*
X3946550Y-259943D01*
X3936288Y-262940D01*
X3926128Y-267766D01*
X3921760Y-268732D01*
X3847642Y-268732D01*
X3845001Y-268376D01*
X3842562Y-267360D01*
X3838498Y-265023D01*
X3828491Y-261213D01*
X3818026Y-259079D01*
X3807307Y-258673D01*
X3796690Y-259943D01*
X3786428Y-262940D01*
X3776726Y-267512D01*
X3767937Y-273608D01*
X3760215Y-281025D01*
X3753764Y-289560D01*
X3748786Y-299059D01*
X3745788Y-308051D01*
X3743350Y-312013D01*
X3657549Y-397814D01*
X3654247Y-400050D01*
X3650335Y-400812D01*
X3551682Y-400812D01*
X3547414Y-399796D01*
X3543198Y-400812D01*
X3500780Y-400812D01*
X3496310Y-399999D01*
X3492296Y-400812D01*
X3045104Y-400812D01*
X3041192Y-400050D01*
X3037890Y-397814D01*
X2940710Y-300634D01*
X2936900Y-297180D01*
X2933039Y-294182D01*
X2928874Y-291541D01*
X2924505Y-289255D01*
X2919984Y-287375D01*
X2915259Y-285902D01*
X2910484Y-284835D01*
X2905607Y-284175D01*
X2900476Y-283972D01*
X2773883Y-283972D01*
X2768752Y-284175D01*
X2763875Y-284835D01*
X2759100Y-285902D01*
X2754426Y-287375D01*
X2749854Y-289255D01*
X2745486Y-291541D01*
X2741371Y-294182D01*
X2737459Y-297180D01*
X2733649Y-300634D01*
X2683154Y-351129D01*
X2679700Y-354939D01*
X2676702Y-358800D01*
X2674061Y-362966D01*
X2671775Y-367334D01*
X2669895Y-371856D01*
X2668422Y-376580D01*
X2667355Y-381355D01*
X2666746Y-386232D01*
X2666492Y-391363D01*
X2666492Y-604316D01*
X2666746Y-609447D01*
X2667355Y-614324D01*
X2668422Y-619099D01*
X2669895Y-623824D01*
X2671775Y-628345D01*
X2674061Y-632714D01*
X2676702Y-636879D01*
X2679700Y-640740D01*
X2683154Y-644550D01*
X2770530Y-731926D01*
X2772664Y-735025D01*
X2773527Y-738632D01*
X2773019Y-742340D01*
X2770073Y-751179D01*
X2768346Y-761746D01*
X2768346Y-772414D01*
X2770073Y-782980D01*
X2773426Y-793140D01*
X2778404Y-802640D01*
X2784856Y-811174D01*
X2792577Y-818591D01*
X2801366Y-824687D01*
X2811068Y-829259D01*
X2821330Y-832256D01*
X2831947Y-833526D01*
X2842666Y-833119D01*
X2853131Y-830986D01*
X2863138Y-827176D01*
X2872435Y-821842D01*
X2880715Y-815035D01*
X2887827Y-807059D01*
X2893517Y-797966D01*
X2896971Y-789889D01*
X2899206Y-786638D01*
X2902508Y-784453D01*
X2906369Y-783742D01*
X2910230Y-784504D01*
X2913532Y-786688D01*
X3222040Y-1095197D01*
X3227882Y-1099972D01*
X3234131Y-1103122D01*
X3240989Y-1104950D01*
G37*
G36*
X1798726Y-5159248D02*
G01*
X5546852Y-5159248D01*
X5554319Y-5158486D01*
X5560974Y-5156301D01*
X5567172Y-5152745D01*
X5571337Y-5149138D01*
X6247485Y-4472990D01*
X6250686Y-4470857D01*
X6254496Y-4470044D01*
X6258356Y-4470704D01*
X6260490Y-4471568D01*
X6269329Y-4473194D01*
X6278321Y-4473194D01*
X6287109Y-4471568D01*
X6295542Y-4468317D01*
X6303162Y-4463542D01*
X6309817Y-4457496D01*
X6315202Y-4450334D01*
X6319215Y-4442256D01*
X6321704Y-4433620D01*
X6322517Y-4424680D01*
X6321704Y-4415739D01*
X6319215Y-4407103D01*
X6315202Y-4399026D01*
X6309817Y-4391863D01*
X6303162Y-4385818D01*
X6295542Y-4381042D01*
X6290716Y-4378350D01*
X6288430Y-4375048D01*
X6287617Y-4371136D01*
X6288379Y-4367174D01*
X6290614Y-4363872D01*
X6317437Y-4336999D01*
X6322212Y-4331157D01*
X6325362Y-4324908D01*
X6327190Y-4318050D01*
X6327648Y-4312513D01*
X6327648Y-3353308D01*
X6326886Y-3345840D01*
X6324701Y-3339185D01*
X6321145Y-3332987D01*
X6317538Y-3328822D01*
X6097778Y-3109010D01*
X6095542Y-3105759D01*
X6094780Y-3101848D01*
X6095542Y-3097936D01*
X6097778Y-3094685D01*
X6101080Y-3092450D01*
X6104940Y-3091688D01*
X6498793Y-3091688D01*
X6502450Y-3092399D01*
X6505651Y-3094329D01*
X6508597Y-3097022D01*
X6516217Y-3101797D01*
X6524650Y-3105048D01*
X6533489Y-3106674D01*
X6542481Y-3106674D01*
X6551269Y-3105048D01*
X6559702Y-3101797D01*
X6567322Y-3097022D01*
X6573977Y-3090976D01*
X6579362Y-3083814D01*
X6583375Y-3075736D01*
X6585864Y-3067100D01*
X6586677Y-3058160D01*
X6586118Y-3051962D01*
X6586575Y-3047796D01*
X6588709Y-3044190D01*
X6592112Y-3041751D01*
X6596227Y-3040888D01*
X6683908Y-3040888D01*
X6688175Y-3041802D01*
X6691630Y-3044444D01*
X6693662Y-3048254D01*
X6695744Y-3055416D01*
X6699758Y-3063494D01*
X6705142Y-3070656D01*
X6711797Y-3076702D01*
X6719417Y-3081477D01*
X6727850Y-3084728D01*
X6736689Y-3086354D01*
X6745681Y-3086354D01*
X6754469Y-3084728D01*
X6762902Y-3081477D01*
X6770522Y-3076702D01*
X6777177Y-3070656D01*
X6782562Y-3063494D01*
X6786575Y-3055416D01*
X6789064Y-3046780D01*
X6789877Y-3037840D01*
X6789064Y-3028899D01*
X6786575Y-3020263D01*
X6782562Y-3012186D01*
X6777177Y-3005023D01*
X6770522Y-2998978D01*
X6762902Y-2994202D01*
X6754469Y-2990951D01*
X6745681Y-2989326D01*
X6740398Y-2988564D01*
X6737096Y-2986328D01*
X6734759Y-2984042D01*
X6728917Y-2979267D01*
X6722668Y-2976118D01*
X6715810Y-2974289D01*
X6710273Y-2973832D01*
X6114084Y-2973832D01*
X6110224Y-2973070D01*
X6106922Y-2970834D01*
X5871159Y-2735122D01*
X5865317Y-2730347D01*
X5859068Y-2727198D01*
X5852210Y-2725369D01*
X5846673Y-2724912D01*
X5585764Y-2724912D01*
X5581904Y-2724150D01*
X5578602Y-2721914D01*
X5424119Y-2567482D01*
X5418277Y-2562707D01*
X5412028Y-2559558D01*
X5405170Y-2557729D01*
X5399633Y-2557272D01*
X5268468Y-2557272D01*
X5261000Y-2558084D01*
X5254345Y-2560218D01*
X5248148Y-2563774D01*
X5243982Y-2567381D01*
X5209082Y-2602280D01*
X5204307Y-2608122D01*
X5201158Y-2614371D01*
X5199329Y-2621229D01*
X5198872Y-2626766D01*
X5198872Y-2714955D01*
X5198110Y-2718816D01*
X5195874Y-2722118D01*
X5099558Y-2818434D01*
X5096256Y-2820670D01*
X5092395Y-2821432D01*
X4325924Y-2821432D01*
X4322064Y-2820670D01*
X4318762Y-2818434D01*
X4263085Y-2762758D01*
X4260850Y-2759456D01*
X4260088Y-2755595D01*
X4260088Y-2655722D01*
X4260596Y-2652471D01*
X4262120Y-2649575D01*
X4267962Y-2641854D01*
X4271975Y-2633776D01*
X4274464Y-2625140D01*
X4275277Y-2616200D01*
X4274464Y-2607259D01*
X4271975Y-2598623D01*
X4267962Y-2590546D01*
X4262577Y-2583383D01*
X4255922Y-2577338D01*
X4248302Y-2572562D01*
X4239869Y-2569311D01*
X4231081Y-2567686D01*
X4222089Y-2567686D01*
X4213250Y-2569311D01*
X4204817Y-2572562D01*
X4197197Y-2577338D01*
X4190542Y-2583383D01*
X4185158Y-2590546D01*
X4181144Y-2598623D01*
X4178655Y-2607259D01*
X4177842Y-2616200D01*
X4178655Y-2625140D01*
X4181144Y-2633776D01*
X4185158Y-2641854D01*
X4191000Y-2649575D01*
X4192524Y-2652471D01*
X4193032Y-2655722D01*
X4193032Y-2773121D01*
X4193844Y-2780639D01*
X4195978Y-2787294D01*
X4199534Y-2793441D01*
X4203141Y-2797657D01*
X4208221Y-2802788D01*
X4210304Y-2805785D01*
X4211218Y-2809290D01*
X4210761Y-2812897D01*
X4209135Y-2816148D01*
X4206392Y-2818587D01*
X4202277Y-2821178D01*
X4195622Y-2827223D01*
X4190237Y-2834386D01*
X4186224Y-2842463D01*
X4183735Y-2851099D01*
X4182922Y-2860040D01*
X4183735Y-2868980D01*
X4186224Y-2877616D01*
X4190237Y-2885694D01*
X4195622Y-2892856D01*
X4202277Y-2898902D01*
X4209897Y-2903677D01*
X4218330Y-2906928D01*
X4232402Y-2909316D01*
X4235704Y-2911551D01*
X4253280Y-2929077D01*
X4259122Y-2933852D01*
X4265371Y-2937002D01*
X4272229Y-2938830D01*
X4277766Y-2939288D01*
X4953355Y-2939288D01*
X4957318Y-2940100D01*
X4960670Y-2942386D01*
X4962804Y-2945790D01*
X4963515Y-2949752D01*
X4962601Y-2953715D01*
X4960213Y-2956966D01*
X4957622Y-2959303D01*
X4952238Y-2966466D01*
X4948224Y-2974543D01*
X4945735Y-2983179D01*
X4944922Y-2992120D01*
X4945735Y-3001060D01*
X4948224Y-3009696D01*
X4952238Y-3017774D01*
X4957622Y-3024936D01*
X4964277Y-3030982D01*
X4971897Y-3035757D01*
X4980330Y-3039008D01*
X4994402Y-3041396D01*
X4997704Y-3043631D01*
X5091480Y-3137357D01*
X5097322Y-3142132D01*
X5103571Y-3145282D01*
X5110429Y-3147110D01*
X5115966Y-3147568D01*
X5717235Y-3147568D01*
X5721096Y-3148330D01*
X5724398Y-3150565D01*
X6018834Y-3445001D01*
X6021070Y-3448304D01*
X6021832Y-3452164D01*
X6021832Y-4218635D01*
X6021070Y-4222496D01*
X6018834Y-4225798D01*
X5404358Y-4840274D01*
X5401056Y-4842510D01*
X5397195Y-4843272D01*
X3137458Y-4843272D01*
X3133394Y-4842408D01*
X3130042Y-4840071D01*
X3127857Y-4836515D01*
X3127298Y-4832451D01*
X3128416Y-4828489D01*
X3131007Y-4825238D01*
X3138424Y-4819192D01*
X3269792Y-4687824D01*
X3275228Y-4681169D01*
X3279038Y-4674108D01*
X3281375Y-4666386D01*
X3282187Y-4657852D01*
X3282187Y-4368292D01*
X3282645Y-4365244D01*
X3284778Y-4361434D01*
X3288893Y-4352493D01*
X3291433Y-4343044D01*
X3292297Y-4333240D01*
X3291433Y-4323435D01*
X3288893Y-4313986D01*
X3284778Y-4305046D01*
X3279140Y-4297019D01*
X3272180Y-4290060D01*
X3264153Y-4284421D01*
X3255213Y-4280306D01*
X3245764Y-4277766D01*
X3235960Y-4276902D01*
X3226155Y-4277766D01*
X3216706Y-4280306D01*
X3207766Y-4284421D01*
X3199739Y-4290060D01*
X3192780Y-4297019D01*
X3187141Y-4305046D01*
X3183026Y-4313986D01*
X3180486Y-4323435D01*
X3179622Y-4333240D01*
X3180486Y-4343044D01*
X3183026Y-4352493D01*
X3187141Y-4361434D01*
X3192780Y-4369460D01*
X3196894Y-4373575D01*
X3199130Y-4376877D01*
X3199892Y-4380788D01*
X3199892Y-4637125D01*
X3199130Y-4640986D01*
X3196894Y-4644288D01*
X3094888Y-4746294D01*
X3091586Y-4748530D01*
X3087725Y-4749292D01*
X3075076Y-4749292D01*
X3072028Y-4748834D01*
X3069234Y-4747463D01*
X3060954Y-4741621D01*
X3052013Y-4737506D01*
X3042564Y-4734966D01*
X3032760Y-4734102D01*
X3022955Y-4734966D01*
X3013506Y-4737506D01*
X3004566Y-4741621D01*
X2996539Y-4747260D01*
X2989580Y-4754219D01*
X2983941Y-4762246D01*
X2979826Y-4771186D01*
X2977286Y-4780635D01*
X2976422Y-4790440D01*
X2977286Y-4800244D01*
X2979826Y-4809693D01*
X2983941Y-4818634D01*
X2990037Y-4827270D01*
X2991713Y-4831334D01*
X2991510Y-4835753D01*
X2989478Y-4839665D01*
X2986024Y-4842306D01*
X2981706Y-4843272D01*
X1948484Y-4843272D01*
X1944624Y-4842510D01*
X1941322Y-4840274D01*
X1828901Y-4727854D01*
X1826564Y-4724298D01*
X1825955Y-4720082D01*
X1827072Y-4715967D01*
X1829816Y-4712665D01*
X1833676Y-4710836D01*
X1837943Y-4710684D01*
X1844649Y-4711954D01*
X1853641Y-4711954D01*
X1862429Y-4710328D01*
X1870862Y-4707077D01*
X1878482Y-4702302D01*
X1881428Y-4699609D01*
X1884629Y-4697679D01*
X1888286Y-4696968D01*
X1904492Y-4696968D01*
X1911959Y-4696206D01*
X1918614Y-4694021D01*
X1924812Y-4690465D01*
X1928977Y-4686858D01*
X2187397Y-4428439D01*
X2192172Y-4422597D01*
X2195322Y-4416348D01*
X2197150Y-4409490D01*
X2197608Y-4403953D01*
X2197608Y-3883964D01*
X2198370Y-3880104D01*
X2200605Y-3876801D01*
X2368042Y-3709365D01*
X2371344Y-3707129D01*
X2375204Y-3706368D01*
X2525979Y-3706368D01*
X2530246Y-3707282D01*
X2533700Y-3709924D01*
X2535732Y-3713734D01*
X2536037Y-3718102D01*
X2534462Y-3722115D01*
X2524302Y-3731463D01*
X2518918Y-3738626D01*
X2514904Y-3746703D01*
X2512415Y-3755339D01*
X2511602Y-3764279D01*
X2512415Y-3773220D01*
X2516022Y-3786073D01*
X2515463Y-3790137D01*
X2513279Y-3793591D01*
X2509926Y-3795979D01*
X2505913Y-3796792D01*
X2442006Y-3796792D01*
X2438349Y-3796080D01*
X2435148Y-3794150D01*
X2432202Y-3791458D01*
X2424582Y-3786682D01*
X2416149Y-3783431D01*
X2407361Y-3781806D01*
X2398369Y-3781806D01*
X2389530Y-3783431D01*
X2381097Y-3786682D01*
X2373477Y-3791458D01*
X2366822Y-3797503D01*
X2361438Y-3804665D01*
X2357424Y-3812743D01*
X2354935Y-3821379D01*
X2354122Y-3830320D01*
X2354935Y-3839260D01*
X2357424Y-3847896D01*
X2361438Y-3855974D01*
X2366822Y-3863136D01*
X2373477Y-3869182D01*
X2381097Y-3873957D01*
X2389530Y-3877208D01*
X2398369Y-3878834D01*
X2407361Y-3878834D01*
X2416149Y-3877208D01*
X2424582Y-3873957D01*
X2432202Y-3869182D01*
X2435148Y-3866489D01*
X2438349Y-3864559D01*
X2442006Y-3863848D01*
X3413251Y-3863848D01*
X3420719Y-3863086D01*
X3427374Y-3860901D01*
X3433572Y-3857345D01*
X3437737Y-3853738D01*
X3520389Y-3771137D01*
X3523640Y-3768902D01*
X3527551Y-3768140D01*
X3531463Y-3768902D01*
X3534714Y-3771137D01*
X3536950Y-3774440D01*
X3537712Y-3778300D01*
X3537712Y-3795877D01*
X3537204Y-3799128D01*
X3535679Y-3802024D01*
X3529837Y-3809746D01*
X3525824Y-3817823D01*
X3523335Y-3826459D01*
X3522522Y-3835400D01*
X3523335Y-3844340D01*
X3525824Y-3852976D01*
X3529837Y-3861054D01*
X3535222Y-3868216D01*
X3541877Y-3874262D01*
X3549497Y-3879037D01*
X3557930Y-3882288D01*
X3566769Y-3883914D01*
X3575761Y-3883914D01*
X3584549Y-3882288D01*
X3592982Y-3879037D01*
X3600602Y-3874262D01*
X3607257Y-3868216D01*
X3612642Y-3861054D01*
X3616655Y-3852976D01*
X3619144Y-3844340D01*
X3619957Y-3835400D01*
X3619144Y-3826459D01*
X3616655Y-3817823D01*
X3612642Y-3809746D01*
X3606800Y-3802024D01*
X3605276Y-3799128D01*
X3604768Y-3795877D01*
X3604768Y-3045460D01*
X3605326Y-3042056D01*
X3607003Y-3039110D01*
X3610762Y-3036062D01*
X3617417Y-3030016D01*
X3622801Y-3022854D01*
X3626815Y-3014776D01*
X3629304Y-3006140D01*
X3630117Y-2997200D01*
X3629304Y-2988259D01*
X3626815Y-2979623D01*
X3622801Y-2971546D01*
X3617417Y-2964383D01*
X3610762Y-2958338D01*
X3603142Y-2953562D01*
X3594709Y-2950311D01*
X3585870Y-2948686D01*
X3576929Y-2948686D01*
X3569157Y-2950108D01*
X3565042Y-2950057D01*
X3561334Y-2948381D01*
X3558540Y-2945333D01*
X3557219Y-2941472D01*
X3557524Y-2937357D01*
X3558184Y-2935020D01*
X3558997Y-2926080D01*
X3558184Y-2917139D01*
X3555695Y-2908503D01*
X3551682Y-2900426D01*
X3546297Y-2893263D01*
X3539642Y-2887218D01*
X3532022Y-2882442D01*
X3523589Y-2879191D01*
X3514801Y-2877566D01*
X3505809Y-2877566D01*
X3503371Y-2878023D01*
X3499307Y-2877921D01*
X3495548Y-2876245D01*
X3492804Y-2873197D01*
X3491433Y-2869336D01*
X3492144Y-2863900D01*
X3492957Y-2854960D01*
X3492144Y-2846019D01*
X3489655Y-2837383D01*
X3485642Y-2829306D01*
X3480257Y-2822143D01*
X3473602Y-2816098D01*
X3465982Y-2811322D01*
X3457549Y-2808071D01*
X3448761Y-2806446D01*
X3439769Y-2806446D01*
X3430930Y-2808071D01*
X3425545Y-2810154D01*
X3421684Y-2810865D01*
X3417874Y-2810002D01*
X3414623Y-2807817D01*
X3412490Y-2804515D01*
X3411728Y-2800705D01*
X3411728Y-2781960D01*
X3412794Y-2777388D01*
X3413455Y-2776016D01*
X3415944Y-2767380D01*
X3416757Y-2758440D01*
X3415944Y-2749499D01*
X3415080Y-2746502D01*
X3414725Y-2742793D01*
X3415741Y-2739186D01*
X3418027Y-2736189D01*
X3421176Y-2734259D01*
X3424834Y-2733548D01*
X3558895Y-2733548D01*
X3562807Y-2734310D01*
X3566109Y-2736545D01*
X3672230Y-2842666D01*
X3674668Y-2846628D01*
X3677665Y-2855620D01*
X3682644Y-2865120D01*
X3689096Y-2873654D01*
X3696817Y-2881071D01*
X3705606Y-2887167D01*
X3715308Y-2891739D01*
X3721303Y-2893466D01*
X3723640Y-2894482D01*
X3725672Y-2896057D01*
X4060545Y-3230930D01*
X4062729Y-3234232D01*
X4063492Y-3238144D01*
X4063492Y-3738676D01*
X4063746Y-3743807D01*
X4064355Y-3748684D01*
X4065422Y-3753459D01*
X4066895Y-3758184D01*
X4068775Y-3762705D01*
X4071061Y-3767074D01*
X4073702Y-3771239D01*
X4076700Y-3775100D01*
X4080154Y-3778910D01*
X4379569Y-4078325D01*
X4383379Y-4081779D01*
X4387240Y-4084777D01*
X4391406Y-4087418D01*
X4395774Y-4089704D01*
X4400296Y-4091584D01*
X4405020Y-4093057D01*
X4409795Y-4094124D01*
X4414672Y-4094784D01*
X4419803Y-4094987D01*
X4793335Y-4094987D01*
X4797247Y-4095750D01*
X4800549Y-4097985D01*
X4920894Y-4218279D01*
X4923180Y-4221886D01*
X4923840Y-4226102D01*
X4918913Y-4241139D01*
X4917186Y-4251706D01*
X4917186Y-4262374D01*
X4918913Y-4272940D01*
X4922266Y-4283100D01*
X4927244Y-4292600D01*
X4933696Y-4301134D01*
X4941417Y-4308551D01*
X4950206Y-4314647D01*
X4959908Y-4319219D01*
X4970170Y-4322216D01*
X4980787Y-4323486D01*
X4991506Y-4323080D01*
X5001971Y-4320946D01*
X5011978Y-4317136D01*
X5021275Y-4311802D01*
X5029555Y-4304995D01*
X5036667Y-4297019D01*
X5042357Y-4287926D01*
X5046573Y-4278122D01*
X5049113Y-4267708D01*
X5049977Y-4257040D01*
X5049113Y-4246372D01*
X5046573Y-4235958D01*
X5042357Y-4226153D01*
X5040274Y-4222038D01*
X5039868Y-4219244D01*
X5039868Y-4201363D01*
X5039664Y-4196232D01*
X5039004Y-4191355D01*
X5037937Y-4186580D01*
X5036464Y-4181906D01*
X5034584Y-4177334D01*
X5032298Y-4172965D01*
X5029657Y-4168851D01*
X5026660Y-4164939D01*
X5023205Y-4161129D01*
X4860950Y-3998874D01*
X4857140Y-3995420D01*
X4853228Y-3992422D01*
X4849114Y-3989781D01*
X4844745Y-3987495D01*
X4840173Y-3985615D01*
X4835499Y-3984142D01*
X4830724Y-3983075D01*
X4825847Y-3982415D01*
X4820716Y-3982212D01*
X4447184Y-3982212D01*
X4443272Y-3981450D01*
X4439970Y-3979214D01*
X4179265Y-3718509D01*
X4177029Y-3715207D01*
X4176268Y-3711295D01*
X4176268Y-3210763D01*
X4176064Y-3205632D01*
X4175404Y-3200755D01*
X4174337Y-3195980D01*
X4172864Y-3191256D01*
X4170984Y-3186734D01*
X4168698Y-3182366D01*
X4166057Y-3178200D01*
X4163060Y-3174339D01*
X4159605Y-3170529D01*
X3805428Y-2816352D01*
X3803751Y-2814167D01*
X3801973Y-2808478D01*
X3797757Y-2798673D01*
X3792067Y-2789580D01*
X3784955Y-2781604D01*
X3776675Y-2774797D01*
X3767378Y-2769463D01*
X3754272Y-2764586D01*
X3751884Y-2762808D01*
X3626510Y-2637434D01*
X3622700Y-2633980D01*
X3618839Y-2630982D01*
X3614674Y-2628341D01*
X3610305Y-2626055D01*
X3605784Y-2624175D01*
X3601059Y-2622702D01*
X3596284Y-2621635D01*
X3591407Y-2620975D01*
X3586276Y-2620772D01*
X3258464Y-2620772D01*
X3254552Y-2620010D01*
X3251250Y-2617774D01*
X3208985Y-2575509D01*
X3206750Y-2572207D01*
X3205988Y-2568295D01*
X3205988Y-2526995D01*
X3206394Y-2524201D01*
X3208477Y-2520086D01*
X3212693Y-2510282D01*
X3215233Y-2499868D01*
X3216097Y-2489200D01*
X3215233Y-2478532D01*
X3212693Y-2468118D01*
X3208477Y-2458313D01*
X3202787Y-2449220D01*
X3195675Y-2441244D01*
X3187395Y-2434437D01*
X3178098Y-2429103D01*
X3168091Y-2425293D01*
X3157626Y-2423160D01*
X3146907Y-2422753D01*
X3136290Y-2424023D01*
X3126028Y-2427020D01*
X3116326Y-2431592D01*
X3107537Y-2437688D01*
X3099816Y-2445105D01*
X3093364Y-2453640D01*
X3088386Y-2463139D01*
X3085033Y-2473299D01*
X3083306Y-2483866D01*
X3083306Y-2494534D01*
X3085033Y-2505100D01*
X3088386Y-2515260D01*
X3092043Y-2522220D01*
X3092907Y-2524506D01*
X3093212Y-2526944D01*
X3093212Y-2595676D01*
X3093415Y-2600807D01*
X3094075Y-2605684D01*
X3095142Y-2610459D01*
X3096615Y-2615184D01*
X3098495Y-2619705D01*
X3100781Y-2624074D01*
X3103422Y-2628239D01*
X3106420Y-2632100D01*
X3109874Y-2635910D01*
X3186734Y-2712770D01*
X3188970Y-2716072D01*
X3189732Y-2719984D01*
X3189732Y-2794050D01*
X3188919Y-2798064D01*
X3186531Y-2801416D01*
X3183077Y-2803550D01*
X3179013Y-2804160D01*
X3175050Y-2803144D01*
X3171799Y-2800604D01*
X3169869Y-2796997D01*
X3167278Y-2788412D01*
X3163468Y-2781300D01*
X3158032Y-2774696D01*
X3051505Y-2668168D01*
X3049270Y-2664866D01*
X3048508Y-2660954D01*
X3048508Y-2262276D01*
X3048965Y-2259228D01*
X3050336Y-2256434D01*
X3056178Y-2248154D01*
X3060293Y-2239213D01*
X3062833Y-2229764D01*
X3063697Y-2219960D01*
X3062833Y-2210155D01*
X3060293Y-2200706D01*
X3056178Y-2191766D01*
X3050540Y-2183739D01*
X3043580Y-2176780D01*
X3035554Y-2171141D01*
X3026613Y-2167026D01*
X3017164Y-2164486D01*
X3007360Y-2163622D01*
X2997555Y-2164486D01*
X2988106Y-2167026D01*
X2979166Y-2171141D01*
X2971139Y-2176780D01*
X2964180Y-2183739D01*
X2958541Y-2191766D01*
X2954426Y-2200706D01*
X2951886Y-2210155D01*
X2951022Y-2219960D01*
X2951886Y-2229764D01*
X2954426Y-2239213D01*
X2958541Y-2248154D01*
X2964383Y-2256434D01*
X2965754Y-2259228D01*
X2966212Y-2262276D01*
X2966212Y-2681732D01*
X2967075Y-2690266D01*
X2969412Y-2697937D01*
X2973171Y-2705049D01*
X2978607Y-2711704D01*
X3085185Y-2818231D01*
X3087370Y-2821533D01*
X3088132Y-2825394D01*
X3088132Y-3306165D01*
X3087370Y-3310026D01*
X3085185Y-3313328D01*
X2891129Y-3507384D01*
X2888234Y-3509416D01*
X2884830Y-3510330D01*
X2880715Y-3510686D01*
X2871266Y-3513226D01*
X2862326Y-3517341D01*
X2854045Y-3523183D01*
X2851251Y-3524554D01*
X2848203Y-3525012D01*
X2373274Y-3525012D01*
X2369413Y-3524250D01*
X2366111Y-3522014D01*
X2157984Y-3313887D01*
X2151329Y-3308451D01*
X2144268Y-3304692D01*
X2136546Y-3302355D01*
X2128012Y-3301492D01*
X1474876Y-3301492D01*
X1471828Y-3301034D01*
X1469034Y-3299663D01*
X1460754Y-3293821D01*
X1451813Y-3289706D01*
X1442364Y-3287166D01*
X1432560Y-3286302D01*
X1422755Y-3287166D01*
X1413306Y-3289706D01*
X1404366Y-3293821D01*
X1396085Y-3299663D01*
X1393291Y-3301034D01*
X1390243Y-3301492D01*
X1382268Y-3301492D01*
X1373733Y-3302355D01*
X1366012Y-3304692D01*
X1358950Y-3308451D01*
X1352296Y-3313887D01*
X1299108Y-3367074D01*
X1295806Y-3369310D01*
X1291945Y-3370072D01*
X947724Y-3370072D01*
X943864Y-3369310D01*
X940562Y-3367074D01*
X732485Y-3158998D01*
X730250Y-3155696D01*
X729488Y-3151835D01*
X729488Y-2845714D01*
X730250Y-2841802D01*
X732485Y-2838500D01*
X735736Y-2836316D01*
X739648Y-2835554D01*
X743559Y-2836316D01*
X746810Y-2838500D01*
X922324Y-3013964D01*
X928522Y-3019094D01*
X935177Y-3022650D01*
X942441Y-3024835D01*
X950468Y-3025648D01*
X1772412Y-3025648D01*
X1780438Y-3024886D01*
X1787652Y-3022650D01*
X1794357Y-3019094D01*
X1800555Y-3014014D01*
X2410764Y-2403805D01*
X2414066Y-2401570D01*
X2417978Y-2400808D01*
X2847644Y-2400808D01*
X2850438Y-2401214D01*
X2853029Y-2402332D01*
X2858617Y-2405837D01*
X2867050Y-2409088D01*
X2875889Y-2410714D01*
X2884881Y-2410714D01*
X2893669Y-2409088D01*
X2902102Y-2405837D01*
X2909722Y-2401062D01*
X2916377Y-2395016D01*
X2921762Y-2387854D01*
X2925775Y-2379776D01*
X2928264Y-2371140D01*
X2929077Y-2362200D01*
X2928264Y-2353259D01*
X2925775Y-2344623D01*
X2921762Y-2336546D01*
X2916377Y-2329383D01*
X2909722Y-2323338D01*
X2902102Y-2318562D01*
X2893669Y-2315311D01*
X2884881Y-2313686D01*
X2875889Y-2313686D01*
X2867050Y-2315311D01*
X2858617Y-2318562D01*
X2853029Y-2322068D01*
X2850438Y-2323185D01*
X2847644Y-2323592D01*
X2398268Y-2323592D01*
X2390241Y-2324404D01*
X2383028Y-2326589D01*
X2376322Y-2330145D01*
X2370124Y-2335276D01*
X1759915Y-2945434D01*
X1756613Y-2947670D01*
X1752701Y-2948432D01*
X970178Y-2948432D01*
X966266Y-2947670D01*
X962964Y-2945434D01*
X778205Y-2760675D01*
X775970Y-2757373D01*
X775208Y-2753461D01*
X775208Y-2587244D01*
X776173Y-2582926D01*
X778865Y-2579420D01*
X782828Y-2577439D01*
X787247Y-2577287D01*
X793089Y-2578354D01*
X802081Y-2578354D01*
X810869Y-2576728D01*
X819302Y-2573477D01*
X826922Y-2568702D01*
X829868Y-2566009D01*
X833069Y-2564079D01*
X836726Y-2563368D01*
X1112012Y-2563368D01*
X1119479Y-2562606D01*
X1126134Y-2560421D01*
X1132332Y-2556865D01*
X1136497Y-2553258D01*
X1193292Y-2496464D01*
X1196594Y-2494280D01*
X1200505Y-2493518D01*
X1290320Y-2493518D01*
X1294231Y-2494280D01*
X1297482Y-2496464D01*
X1299718Y-2499766D01*
X1300480Y-2503678D01*
X1300480Y-2590241D01*
X1299921Y-2593594D01*
X1298803Y-2596743D01*
X1298092Y-2603093D01*
X1298092Y-2607259D01*
X1299870Y-2610307D01*
X1300480Y-2613812D01*
X1300480Y-2621178D01*
X1299870Y-2624683D01*
X1298092Y-2627731D01*
X1298092Y-2631948D01*
X1298803Y-2638247D01*
X1299921Y-2641396D01*
X1300480Y-2644749D01*
X1300480Y-2655824D01*
X1301496Y-2656840D01*
X1314094Y-2656840D01*
X1318260Y-2657703D01*
X1324559Y-2658414D01*
X1341120Y-2658414D01*
X1343761Y-2657246D01*
X1346555Y-2656840D01*
X1376426Y-2656840D01*
X1379270Y-2657246D01*
X1381861Y-2658414D01*
X1398422Y-2658414D01*
X1408938Y-2656840D01*
X1499158Y-2656840D01*
X1503273Y-2657652D01*
X1509572Y-2658364D01*
X1526184Y-2658364D01*
X1528775Y-2657246D01*
X1531569Y-2656840D01*
X1561439Y-2656840D01*
X1564233Y-2657246D01*
X1566824Y-2658364D01*
X1583436Y-2658364D01*
X1593850Y-2656840D01*
X1600047Y-2656687D01*
X1601419Y-2652014D01*
X1604213Y-2648610D01*
X1607312Y-2643682D01*
X1609191Y-2638247D01*
X1609902Y-2631338D01*
X1606143Y-2630424D01*
X1603044Y-2628188D01*
X1600911Y-2624937D01*
X1600200Y-2621178D01*
X1600200Y-2613812D01*
X1600911Y-2610002D01*
X1603044Y-2606751D01*
X1606143Y-2604516D01*
X1609902Y-2603652D01*
X1609191Y-2596743D01*
X1607312Y-2591257D01*
X1604213Y-2586380D01*
X1600962Y-2582011D01*
X1600200Y-2578150D01*
X1600200Y-2383790D01*
X1600962Y-2379878D01*
X1603197Y-2376627D01*
X1606448Y-2374392D01*
X1610360Y-2373630D01*
X1616964Y-2373630D01*
X1624431Y-2372868D01*
X1631086Y-2370683D01*
X1637233Y-2367127D01*
X1641652Y-2363368D01*
X1659280Y-2345486D01*
X1663801Y-2339797D01*
X1666290Y-2337562D01*
X1670151Y-2335072D01*
X1676857Y-2328976D01*
X1682242Y-2321814D01*
X1686255Y-2313736D01*
X1688744Y-2305100D01*
X1689557Y-2296160D01*
X1688744Y-2287219D01*
X1686255Y-2278583D01*
X1682242Y-2270506D01*
X1676857Y-2263343D01*
X1670202Y-2257298D01*
X1664817Y-2253640D01*
X1659178Y-2246782D01*
X1649730Y-2237333D01*
X1642516Y-2231644D01*
X1639874Y-2228443D01*
X1638706Y-2224481D01*
X1639214Y-2220366D01*
X1641348Y-2216759D01*
X1644751Y-2214372D01*
X1648815Y-2213508D01*
X1751431Y-2213508D01*
X1758899Y-2212746D01*
X1765554Y-2210562D01*
X1771751Y-2207006D01*
X1775917Y-2203399D01*
X1905762Y-2073605D01*
X1909064Y-2071370D01*
X1912924Y-2070607D01*
X4071315Y-2070607D01*
X4075176Y-2071370D01*
X4078478Y-2073605D01*
X4293920Y-2288997D01*
X4299762Y-2293772D01*
X4306011Y-2296922D01*
X4312869Y-2298750D01*
X4318406Y-2299208D01*
X4470755Y-2299208D01*
X4474718Y-2300020D01*
X4478070Y-2302306D01*
X4480204Y-2305710D01*
X4480915Y-2309672D01*
X4480001Y-2313635D01*
X4477613Y-2316886D01*
X4475022Y-2319223D01*
X4469638Y-2326386D01*
X4465624Y-2334463D01*
X4463135Y-2343099D01*
X4462322Y-2352040D01*
X4463135Y-2360980D01*
X4465624Y-2369616D01*
X4469638Y-2377694D01*
X4472940Y-2382062D01*
X4474464Y-2384958D01*
X4474972Y-2388209D01*
X4474972Y-2549652D01*
X4475835Y-2557627D01*
X4478121Y-2564790D01*
X4481982Y-2571445D01*
X4485843Y-2575966D01*
X4561535Y-2651658D01*
X4563567Y-2654554D01*
X4564481Y-2657906D01*
X4564735Y-2660700D01*
X4567224Y-2669336D01*
X4571238Y-2677414D01*
X4576622Y-2684576D01*
X4583277Y-2690622D01*
X4590897Y-2695397D01*
X4599330Y-2698648D01*
X4608169Y-2700274D01*
X4617161Y-2700274D01*
X4625949Y-2698648D01*
X4634382Y-2695397D01*
X4642002Y-2690622D01*
X4648657Y-2684576D01*
X4654042Y-2677414D01*
X4658055Y-2669336D01*
X4660544Y-2660700D01*
X4661357Y-2651760D01*
X4660544Y-2642819D01*
X4658055Y-2634183D01*
X4654042Y-2626106D01*
X4648657Y-2618943D01*
X4642002Y-2612898D01*
X4634382Y-2608122D01*
X4625949Y-2604871D01*
X4617770Y-2603347D01*
X4614875Y-2602382D01*
X4612436Y-2600553D01*
X4550105Y-2538171D01*
X4547870Y-2534920D01*
X4547108Y-2531008D01*
X4547108Y-2388209D01*
X4547616Y-2384958D01*
X4549140Y-2382062D01*
X4552442Y-2377694D01*
X4556455Y-2369616D01*
X4558944Y-2360980D01*
X4559757Y-2352040D01*
X4558944Y-2343099D01*
X4556455Y-2334463D01*
X4552442Y-2326386D01*
X4547057Y-2319223D01*
X4544466Y-2316886D01*
X4542078Y-2313635D01*
X4541164Y-2309672D01*
X4541875Y-2305710D01*
X4544009Y-2302306D01*
X4547362Y-2300020D01*
X4551324Y-2299208D01*
X5752795Y-2299208D01*
X5756656Y-2299970D01*
X5759958Y-2302205D01*
X6075527Y-2617774D01*
X6077559Y-2620619D01*
X6078575Y-2625140D01*
X6081064Y-2633776D01*
X6085078Y-2641854D01*
X6090615Y-2649169D01*
X6093358Y-2651912D01*
X6095542Y-2655163D01*
X6096355Y-2659075D01*
X6095593Y-2662986D01*
X6093409Y-2666288D01*
X6090107Y-2668524D01*
X6086195Y-2669286D01*
X6076289Y-2669286D01*
X6067450Y-2670911D01*
X6059017Y-2674162D01*
X6051397Y-2678938D01*
X6044742Y-2684983D01*
X6039358Y-2692146D01*
X6035344Y-2700223D01*
X6032855Y-2708859D01*
X6032042Y-2717800D01*
X6032855Y-2726740D01*
X6035344Y-2735376D01*
X6039358Y-2743454D01*
X6044742Y-2750616D01*
X6051397Y-2756662D01*
X6059017Y-2761437D01*
X6067450Y-2764688D01*
X6076289Y-2766314D01*
X6085281Y-2766314D01*
X6094069Y-2764688D01*
X6102502Y-2761437D01*
X6110122Y-2756662D01*
X6113068Y-2753969D01*
X6116269Y-2752039D01*
X6119926Y-2751328D01*
X6237732Y-2751328D01*
X6245199Y-2750566D01*
X6251854Y-2748381D01*
X6258052Y-2744825D01*
X6262217Y-2741218D01*
X6434480Y-2568956D01*
X6437020Y-2566162D01*
X6440830Y-2560320D01*
X6443319Y-2553766D01*
X6444437Y-2546858D01*
X6444081Y-2539847D01*
X6442252Y-2533142D01*
X6440373Y-2529027D01*
X6439408Y-2524760D01*
X6439408Y-627684D01*
X6440170Y-623824D01*
X6442405Y-620522D01*
X6495237Y-567639D01*
X6500012Y-561797D01*
X6503162Y-555548D01*
X6504990Y-548690D01*
X6505448Y-543153D01*
X6505448Y-461162D01*
X6505956Y-457911D01*
X6507480Y-455015D01*
X6513322Y-447293D01*
X6517335Y-439216D01*
X6519824Y-430580D01*
X6520637Y-421640D01*
X6519824Y-412699D01*
X6517335Y-404063D01*
X6513322Y-395986D01*
X6507937Y-388823D01*
X6501282Y-382778D01*
X6493662Y-378002D01*
X6485229Y-374751D01*
X6476441Y-373126D01*
X6467449Y-373126D01*
X6458610Y-374751D01*
X6450177Y-378002D01*
X6442557Y-382778D01*
X6435902Y-388823D01*
X6430518Y-395986D01*
X6426504Y-404063D01*
X6424015Y-412699D01*
X6423202Y-421640D01*
X6424015Y-430580D01*
X6426504Y-439216D01*
X6430518Y-447293D01*
X6436360Y-455015D01*
X6437884Y-457911D01*
X6438392Y-461162D01*
X6438392Y-525475D01*
X6437630Y-529336D01*
X6435394Y-532638D01*
X6382562Y-585520D01*
X6377787Y-591362D01*
X6376060Y-594817D01*
X6373723Y-597814D01*
X6370421Y-599795D01*
X6366662Y-600354D01*
X6362954Y-599541D01*
X6359804Y-597408D01*
X6183020Y-420573D01*
X6180988Y-417728D01*
X6180074Y-414324D01*
X6179464Y-407619D01*
X6176975Y-398983D01*
X6172962Y-390906D01*
X6167577Y-383743D01*
X6160922Y-377698D01*
X6153302Y-372922D01*
X6144869Y-369671D01*
X6136081Y-368046D01*
X6127089Y-368046D01*
X6118250Y-369671D01*
X6109817Y-372922D01*
X6102197Y-377698D01*
X6095542Y-383743D01*
X6090158Y-390906D01*
X6086144Y-398983D01*
X6083655Y-407619D01*
X6082842Y-416559D01*
X6083655Y-425500D01*
X6086144Y-434136D01*
X6090158Y-442214D01*
X6095542Y-449376D01*
X6102197Y-455422D01*
X6109817Y-460197D01*
X6118250Y-463448D01*
X6132322Y-465835D01*
X6135624Y-468071D01*
X6313474Y-645922D01*
X6315710Y-649224D01*
X6316472Y-653084D01*
X6316472Y-2460955D01*
X6315710Y-2464816D01*
X6313474Y-2468118D01*
X6278118Y-2503474D01*
X6274816Y-2505710D01*
X6270955Y-2506472D01*
X6166561Y-2506472D01*
X6162192Y-2505506D01*
X6158687Y-2502712D01*
X6156655Y-2498750D01*
X6156604Y-2494280D01*
X6158433Y-2490165D01*
X6162802Y-2484374D01*
X6166815Y-2476296D01*
X6169304Y-2467660D01*
X6170117Y-2458720D01*
X6169304Y-2449779D01*
X6166815Y-2441143D01*
X6162802Y-2433066D01*
X6158026Y-2426766D01*
X6156248Y-2422804D01*
X6156248Y-2418435D01*
X6158026Y-2414473D01*
X6162802Y-2408174D01*
X6166815Y-2400096D01*
X6169304Y-2391460D01*
X6170117Y-2382520D01*
X6169304Y-2373579D01*
X6166815Y-2364943D01*
X6162802Y-2356866D01*
X6159957Y-2353106D01*
X6158128Y-2349144D01*
X6158128Y-2344775D01*
X6159957Y-2340813D01*
X6162802Y-2337054D01*
X6166815Y-2328976D01*
X6169304Y-2320340D01*
X6170117Y-2311400D01*
X6169304Y-2302459D01*
X6166815Y-2293823D01*
X6162802Y-2285746D01*
X6155182Y-2276094D01*
X6154064Y-2273706D01*
X6151981Y-2267305D01*
X6148425Y-2261108D01*
X6144818Y-2256942D01*
X6140704Y-2252827D01*
X6138468Y-2249424D01*
X6137757Y-2245410D01*
X6138621Y-2241397D01*
X6141059Y-2238095D01*
X6147257Y-2232456D01*
X6152642Y-2225294D01*
X6156655Y-2217216D01*
X6159144Y-2208580D01*
X6159957Y-2199640D01*
X6159144Y-2190699D01*
X6156655Y-2182063D01*
X6152642Y-2173986D01*
X6147257Y-2166823D01*
X6144107Y-2163927D01*
X6141821Y-2160981D01*
X6140805Y-2157374D01*
X6141161Y-2153666D01*
X6142837Y-2150313D01*
X6147562Y-2144014D01*
X6151575Y-2135936D01*
X6154064Y-2127300D01*
X6154877Y-2118360D01*
X6154064Y-2109419D01*
X6151575Y-2100783D01*
X6147562Y-2092706D01*
X6142177Y-2085543D01*
X6139281Y-2082901D01*
X6137300Y-2080463D01*
X6133134Y-2073148D01*
X6129578Y-2068982D01*
X6089599Y-2029002D01*
X6083757Y-2024227D01*
X6077508Y-2021078D01*
X6070600Y-2019249D01*
X6065113Y-2018792D01*
X4728921Y-2018792D01*
X4724552Y-2017826D01*
X4721047Y-2015032D01*
X4719015Y-2011070D01*
X4718964Y-2006600D01*
X4720793Y-2002485D01*
X4725162Y-1996693D01*
X4729175Y-1988616D01*
X4731664Y-1979980D01*
X4732477Y-1971039D01*
X4731664Y-1962099D01*
X4729175Y-1953463D01*
X4725162Y-1945386D01*
X4719777Y-1938223D01*
X4713122Y-1932178D01*
X4705502Y-1927402D01*
X4697069Y-1924151D01*
X4688890Y-1922627D01*
X4685995Y-1921662D01*
X4683556Y-1919833D01*
X4668977Y-1905254D01*
X4662728Y-1900174D01*
X4656023Y-1896770D01*
X4648606Y-1894789D01*
X4642713Y-1894332D01*
X4516932Y-1894332D01*
X4513275Y-1893620D01*
X4502302Y-1886762D01*
X4493869Y-1883511D01*
X4485081Y-1881886D01*
X4476089Y-1881886D01*
X4467250Y-1883511D01*
X4458817Y-1886762D01*
X4451197Y-1891538D01*
X4444542Y-1897583D01*
X4440580Y-1902866D01*
X4437329Y-1905660D01*
X4433163Y-1906828D01*
X4428896Y-1906219D01*
X4425289Y-1903882D01*
X4317238Y-1795830D01*
X4315053Y-1792579D01*
X4314240Y-1788668D01*
X4315053Y-1784756D01*
X4317238Y-1781505D01*
X4320540Y-1779270D01*
X4324400Y-1778507D01*
X4359808Y-1778507D01*
X4363720Y-1779270D01*
X4366971Y-1781505D01*
X4429252Y-1843786D01*
X4435551Y-1848866D01*
X4442256Y-1852269D01*
X4449673Y-1854250D01*
X4455566Y-1854707D01*
X4937201Y-1854707D01*
X4945227Y-1853844D01*
X4952390Y-1851558D01*
X4959045Y-1847697D01*
X4963566Y-1843887D01*
X5079746Y-1727657D01*
X5084826Y-1721408D01*
X5088229Y-1714703D01*
X5090210Y-1707286D01*
X5090668Y-1701393D01*
X5090668Y-1350111D01*
X5091430Y-1346200D01*
X5093665Y-1342898D01*
X5191556Y-1245006D01*
X5193995Y-1243177D01*
X5196890Y-1242212D01*
X5205069Y-1240688D01*
X5213502Y-1237437D01*
X5221122Y-1232662D01*
X5227777Y-1226616D01*
X5233162Y-1219454D01*
X5237175Y-1211376D01*
X5239664Y-1202740D01*
X5240477Y-1193800D01*
X5239664Y-1184859D01*
X5237175Y-1176223D01*
X5233162Y-1168146D01*
X5227777Y-1160983D01*
X5221122Y-1154938D01*
X5213502Y-1150162D01*
X5205069Y-1146911D01*
X5196281Y-1145286D01*
X5187289Y-1145286D01*
X5178450Y-1146911D01*
X5170017Y-1150162D01*
X5162397Y-1154938D01*
X5155742Y-1160983D01*
X5150358Y-1168146D01*
X5146344Y-1176223D01*
X5143855Y-1184859D01*
X5143601Y-1187653D01*
X5142687Y-1191006D01*
X5140655Y-1193850D01*
X5029454Y-1305052D01*
X5024374Y-1311351D01*
X5020970Y-1318056D01*
X5018989Y-1325473D01*
X5018532Y-1331366D01*
X5018532Y-1682648D01*
X5017770Y-1686560D01*
X5015534Y-1689811D01*
X4925771Y-1779574D01*
X4922520Y-1781810D01*
X4918608Y-1782572D01*
X4474311Y-1782572D01*
X4470400Y-1781810D01*
X4467098Y-1779574D01*
X4404817Y-1717293D01*
X4398568Y-1712214D01*
X4391863Y-1708810D01*
X4384446Y-1706829D01*
X4378553Y-1706372D01*
X3917492Y-1706372D01*
X3913835Y-1705660D01*
X3902862Y-1698802D01*
X3894429Y-1695551D01*
X3885641Y-1693925D01*
X3876598Y-1693925D01*
X3867810Y-1695551D01*
X3859377Y-1698802D01*
X3851757Y-1703578D01*
X3845102Y-1709623D01*
X3839718Y-1716786D01*
X3835704Y-1724863D01*
X3833215Y-1733499D01*
X3832402Y-1742439D01*
X3833723Y-1755546D01*
X3832656Y-1759153D01*
X3830421Y-1762150D01*
X3827272Y-1764080D01*
X3823563Y-1764792D01*
X1819198Y-1764792D01*
X1811680Y-1765604D01*
X1805025Y-1767738D01*
X1798828Y-1771294D01*
X1794764Y-1774799D01*
X1714652Y-1854250D01*
X1711248Y-1856486D01*
X1707286Y-1857197D01*
X1703324Y-1856282D01*
X1700022Y-1853895D01*
X1697939Y-1850440D01*
X1697329Y-1846427D01*
X1698396Y-1842516D01*
X1701495Y-1836216D01*
X1703984Y-1827580D01*
X1704797Y-1818639D01*
X1703984Y-1809699D01*
X1701495Y-1801063D01*
X1697482Y-1792986D01*
X1692097Y-1785823D01*
X1685442Y-1779778D01*
X1677822Y-1775002D01*
X1669389Y-1771751D01*
X1660601Y-1770125D01*
X1651609Y-1770125D01*
X1642770Y-1771751D01*
X1634337Y-1775002D01*
X1626717Y-1779778D01*
X1620062Y-1785823D01*
X1618488Y-1787956D01*
X1615287Y-1790700D01*
X1611274Y-1791919D01*
X1607108Y-1791462D01*
X1603502Y-1789328D01*
X1601063Y-1785924D01*
X1600200Y-1781810D01*
X1600200Y-1661769D01*
X1600962Y-1657908D01*
X1604162Y-1653590D01*
X1607261Y-1648714D01*
X1609191Y-1643227D01*
X1609902Y-1636318D01*
X1606143Y-1635404D01*
X1602994Y-1633169D01*
X1600911Y-1629968D01*
X1600200Y-1626158D01*
X1600200Y-1618792D01*
X1600911Y-1615033D01*
X1602994Y-1611782D01*
X1606143Y-1609547D01*
X1609902Y-1608632D01*
X1609191Y-1601724D01*
X1607261Y-1596288D01*
X1604162Y-1591360D01*
X1600098Y-1587296D01*
X1595170Y-1584198D01*
X1589735Y-1582267D01*
X1583385Y-1581556D01*
X1571599Y-1581556D01*
X1571599Y-1584299D01*
X1570786Y-1588211D01*
X1568551Y-1591564D01*
X1565198Y-1593748D01*
X1561236Y-1594459D01*
X1531366Y-1593951D01*
X1527556Y-1593138D01*
X1524304Y-1590903D01*
X1522120Y-1587652D01*
X1521358Y-1583791D01*
X1521358Y-1581556D01*
X1509572Y-1581556D01*
X1503222Y-1582267D01*
X1497787Y-1584198D01*
X1492859Y-1586230D01*
X1488541Y-1585874D01*
X1484782Y-1583791D01*
X1482242Y-1580337D01*
X1481328Y-1576120D01*
X1481328Y-411988D01*
X1480667Y-403047D01*
X1481277Y-396240D01*
X1480464Y-387299D01*
X1477975Y-378663D01*
X1473962Y-370586D01*
X1468577Y-363423D01*
X1461922Y-357378D01*
X1454302Y-352602D01*
X1445869Y-349351D01*
X1437081Y-347726D01*
X1428089Y-347726D01*
X1419250Y-349351D01*
X1410817Y-352602D01*
X1403197Y-357378D01*
X1396542Y-363423D01*
X1391158Y-370586D01*
X1387144Y-378663D01*
X1384655Y-387299D01*
X1383842Y-396240D01*
X1384655Y-405180D01*
X1387144Y-413816D01*
X1391158Y-421893D01*
X1396542Y-429056D01*
X1403197Y-435101D01*
X1409446Y-439013D01*
X1412036Y-441248D01*
X1413713Y-444246D01*
X1414272Y-447649D01*
X1414272Y-1572006D01*
X1413408Y-1576120D01*
X1410868Y-1579575D01*
X1407210Y-1581658D01*
X1402994Y-1582064D01*
X1398422Y-1581556D01*
X1386586Y-1581556D01*
X1385671Y-1585366D01*
X1383385Y-1588566D01*
X1380083Y-1590649D01*
X1376273Y-1591310D01*
X1346352Y-1590802D01*
X1342745Y-1590090D01*
X1339646Y-1588109D01*
X1337411Y-1585112D01*
X1336446Y-1581556D01*
X1324559Y-1581556D01*
X1318209Y-1582267D01*
X1312773Y-1584198D01*
X1306525Y-1588160D01*
X1302461Y-1589887D01*
X1300683Y-1590192D01*
X1300480Y-1595170D01*
X1299921Y-1598523D01*
X1298803Y-1601724D01*
X1298092Y-1608074D01*
X1298092Y-1612239D01*
X1299870Y-1615287D01*
X1300480Y-1618792D01*
X1300480Y-1626158D01*
X1299870Y-1629664D01*
X1298092Y-1632712D01*
X1298092Y-1636928D01*
X1298803Y-1643227D01*
X1299921Y-1646428D01*
X1300480Y-1649780D01*
X1300480Y-1776222D01*
X1299718Y-1780133D01*
X1297482Y-1783384D01*
X1294231Y-1785620D01*
X1290320Y-1786382D01*
X715518Y-1786382D01*
X708050Y-1787194D01*
X701395Y-1789328D01*
X695198Y-1792884D01*
X691032Y-1796491D01*
X558038Y-1929434D01*
X554736Y-1931670D01*
X550875Y-1932432D01*
X366268Y-1932432D01*
X358800Y-1933244D01*
X352145Y-1935378D01*
X345948Y-1938934D01*
X341782Y-1942541D01*
X281482Y-2002840D01*
X276707Y-2008682D01*
X273558Y-2014931D01*
X271729Y-2021789D01*
X271272Y-2027326D01*
X271272Y-3631692D01*
X272084Y-3639159D01*
X274218Y-3645814D01*
X277774Y-3652012D01*
X281381Y-3656177D01*
X1774240Y-5149037D01*
X1780082Y-5153812D01*
X1786331Y-5156962D01*
X1793189Y-5158790D01*
G37*
G36*
X7061809Y-2237994D02*
G01*
X7070801Y-2237994D01*
X7079589Y-2236368D01*
X7088022Y-2233117D01*
X7095642Y-2228342D01*
X7102297Y-2222296D01*
X7107681Y-2215134D01*
X7111695Y-2207056D01*
X7114184Y-2198420D01*
X7114997Y-2189480D01*
X7114184Y-2180539D01*
X7111695Y-2171903D01*
X7107681Y-2163826D01*
X7104380Y-2159457D01*
X7102856Y-2156561D01*
X7102348Y-2153310D01*
X7102348Y-1448206D01*
X7101484Y-1440230D01*
X7099198Y-1433068D01*
X7095337Y-1426413D01*
X7091476Y-1421892D01*
X6982815Y-1313180D01*
X6980783Y-1310335D01*
X6979869Y-1306931D01*
X6979615Y-1304188D01*
X6977125Y-1295552D01*
X6973112Y-1287475D01*
X6967728Y-1280312D01*
X6961073Y-1274267D01*
X6953453Y-1269492D01*
X6945020Y-1266240D01*
X6936231Y-1264615D01*
X6927240Y-1264615D01*
X6918401Y-1266240D01*
X6909968Y-1269492D01*
X6902348Y-1274267D01*
X6895693Y-1280312D01*
X6890308Y-1287475D01*
X6886295Y-1295552D01*
X6883806Y-1304188D01*
X6882993Y-1313129D01*
X6883806Y-1322070D01*
X6886295Y-1330706D01*
X6890308Y-1338783D01*
X6895693Y-1345946D01*
X6902348Y-1351991D01*
X6909968Y-1356766D01*
X6918401Y-1360017D01*
X6926580Y-1361541D01*
X6929475Y-1362506D01*
X6931914Y-1364335D01*
X7027214Y-1459636D01*
X7029450Y-1462938D01*
X7030212Y-1466850D01*
X7030212Y-2153310D01*
X7029703Y-2156561D01*
X7028180Y-2159457D01*
X7024878Y-2163826D01*
X7020864Y-2171903D01*
X7018375Y-2180539D01*
X7017562Y-2189480D01*
X7018375Y-2198420D01*
X7020864Y-2207056D01*
X7024878Y-2215134D01*
X7030262Y-2222296D01*
X7036917Y-2228342D01*
X7044537Y-2233117D01*
X7052970Y-2236368D01*
G37*

%LPD*%
G36*
X1638757Y-1906473D02*
G01*
X1634439Y-1905507D01*
X1630933Y-1902815D01*
X1628901Y-1898904D01*
X1628749Y-1894535D01*
X1630426Y-1890471D01*
X1638757Y-1883410D01*
X1652016Y-1870151D01*
X1655318Y-1867916D01*
X1660601Y-1867154D01*
X1669389Y-1865528D01*
X1682496Y-1860346D01*
X1686712Y-1860651D01*
X1690420Y-1862632D01*
X1693011Y-1865934D01*
X1694027Y-1869998D01*
X1693367Y-1874113D01*
X1691030Y-1877618D01*
X1664970Y-1903526D01*
X1661718Y-1905660D01*
X1657807Y-1906473D01*
G37*

%LPD*%
D10*
X6106159Y-2118360D02*
G01*
X6106159Y-2092965D01*
X6065514Y-2052320D01*
X4526285Y-2052320D01*
X4272285Y-1798320D01*
X1818642Y-1798320D01*
X1675818Y-1939975D01*
X1552983Y-1939975D01*
X1416659Y-2179980D02*
G01*
X1412239Y-2184400D01*
X1412239Y-2250439D01*
X1402714Y-2259964D01*
X1354988Y-2259964D01*
X1546605Y-2617470D02*
G01*
X1544320Y-2702560D01*
X1546504Y-2617470D02*
G01*
X1550314Y-2621279D01*
X1686560Y-2621279D01*
X1361439Y-2617470D02*
G01*
X1361439Y-2712720D01*
X1361439Y-2617470D02*
G01*
X1254760Y-2616200D01*
X1355089Y-2499868D02*
G01*
X1254760Y-2499360D01*
X1552955Y-2499868D02*
G01*
X1661160Y-2499360D01*
X1546479Y-1622475D02*
G01*
X1549400Y-1619554D01*
X1549400Y-1549400D01*
X1546605Y-1622552D02*
G01*
X1651000Y-1620520D01*
X1552955Y-1780031D02*
G01*
X1610360Y-1778000D01*
X1552981Y-1739976D02*
G01*
X1555597Y-1737360D01*
X1651000Y-1737360D01*
X1354988Y-1779955D02*
G01*
X1351864Y-1783079D01*
X1249679Y-1783079D01*
X1219200Y-1752600D01*
X1193800Y-1752600D01*
X1354988Y-1739976D02*
G01*
X1352372Y-1737360D01*
X1224279Y-1737360D01*
X1361490Y-1622475D02*
G01*
X1354454Y-1615439D01*
X1178560Y-1615439D01*
D11*
X1354985Y-2219957D02*
G01*
X944879Y-2219957D01*
X736600Y-2428242D01*
X736600Y-2773679D01*
X949957Y-2987042D01*
X1772920Y-2987042D01*
X2397762Y-2362200D01*
X2880359Y-2362200D01*
D10*
X1014704Y-2139975D02*
G01*
X980439Y-2174239D01*
X812800Y-2174239D01*
X695960Y-2291079D01*
X695960Y-2458720D01*
X695960Y-2458720D02*
G01*
X695960Y-3169920D01*
X929639Y-3403600D01*
X1320800Y-3403600D01*
X1354988Y-2139975D02*
G01*
X1014704Y-2139975D01*
X1354988Y-2179980D02*
G01*
X1416659Y-2179980D01*
X1453997Y-2142642D01*
X1453997Y-2119995D01*
X1354988Y-2099970D02*
G01*
X1433972Y-2099970D01*
X1453997Y-2119995D01*
D12*
X2890514Y-3566157D02*
G01*
X3129285Y-3327400D01*
X3129285Y-2804157D01*
X3007359Y-2682232D01*
X3007359Y-2219960D01*
X3235957Y-4333242D02*
G01*
X3241042Y-4338320D01*
X3241042Y-4658357D01*
X3108959Y-4790439D01*
X3032759Y-4790439D01*
X1432560Y-3342639D02*
G01*
X2128520Y-3342639D01*
X2352040Y-3566160D01*
X2890520Y-3566160D01*
X1330957Y-3774442D02*
G01*
X1320800Y-3764279D01*
X1320800Y-3403600D01*
X1381760Y-3342639D01*
X1432560Y-3342639D01*
X1965959Y-4323079D02*
G01*
X1925320Y-4282439D01*
X1925320Y-4084320D01*
X3230879Y-2677160D02*
G01*
X3230879Y-3398520D01*
X2098042Y-3520442D02*
G01*
X2072640Y-3545845D01*
X2072640Y-4003039D01*
X2397759Y-4013200D02*
G01*
X2524759Y-4140200D01*
X3429000Y-4140200D01*
X3556761Y-4012437D01*
X3556761Y-3992118D01*
D10*
X1552981Y-1859965D02*
G01*
X1614754Y-1859965D01*
X1656079Y-1818639D01*
X1552955Y-1899920D02*
G01*
X1661160Y-1899920D01*
X1808479Y-1752600D01*
X2032000Y-1752600D01*
X1552955Y-2260092D02*
G01*
X1625600Y-2260600D01*
X1635760Y-2270760D01*
X1635760Y-2321560D01*
X1617471Y-2340102D01*
X1552955Y-2340102D01*
D13*
X3738885Y-2829557D02*
G01*
X4119885Y-3210557D01*
X4119885Y-3738879D01*
X4419600Y-4038600D01*
X4820914Y-4038600D01*
X4983479Y-4201165D01*
X4983479Y-4257039D01*
D14*
X6931713Y-1313126D02*
G01*
X7066279Y-1447693D01*
X7066279Y-2189479D01*
X5191757Y-1193800D02*
G01*
X5054600Y-1330957D01*
X5054600Y-1701800D01*
X4937757Y-1818642D01*
X4455157Y-1818642D01*
X4378954Y-1742439D01*
X3881120Y-1742439D01*
X4683759Y-1971039D02*
G01*
X4643120Y-1930400D01*
X4480559Y-1930400D01*
X4612640Y-2651760D02*
G01*
X4511040Y-2550160D01*
X4511040Y-2352039D01*
D13*
X3738879Y-2829560D02*
G01*
X3586479Y-2677160D01*
X3230879Y-2677160D01*
X3149600Y-2595879D01*
X3149600Y-2489200D01*
X3434085Y-457200D02*
G01*
X3017514Y-457200D01*
X2900685Y-340357D01*
X2773685Y-340357D01*
X2722885Y-391157D01*
X2722885Y-604520D01*
X2834640Y-716277D01*
X2834640Y-767079D01*
X3810000Y-325120D02*
G01*
X3677920Y-457200D01*
X3434079Y-457200D01*
X4109720Y-325125D02*
G01*
X3810000Y-325120D01*
D14*
X1552981Y-2379979D02*
G01*
X1450339Y-2379979D01*
X1427479Y-2357120D01*
X1427479Y-2321560D01*
X1442720Y-2306320D01*
X1478279Y-2306320D01*
X1552983Y-2299970D02*
G01*
X1546633Y-2306320D01*
X1478279Y-2306320D01*
X1457960Y-2286002D01*
X1457960Y-2219960D01*
X1552983Y-2219957D02*
G01*
X1552981Y-2219960D01*
X1457960Y-2219960D01*
D10*
X1354988Y-2459964D02*
G01*
X1182395Y-2459964D01*
X1112520Y-2529839D01*
X797560Y-2529839D01*
X1355089Y-2419857D02*
G01*
X1151381Y-2419857D01*
X1112520Y-2458720D01*
X858520Y-2458720D01*
X1354988Y-2379979D02*
G01*
X1150620Y-2379979D01*
X1102360Y-2428239D01*
X1005839Y-2428239D01*
X970279Y-2392679D01*
X914400Y-2392679D01*
X1354988Y-2339975D02*
G01*
X1104264Y-2339975D01*
X1066800Y-2377439D01*
X1355089Y-2299970D02*
G01*
X1056639Y-2301239D01*
X1552955Y-2059939D02*
G01*
X1490979Y-2059939D01*
X1447800Y-2016760D01*
X1447800Y-411479D01*
X1432560Y-396239D01*
X6217920Y-4455160D02*
G01*
X6248400Y-4424679D01*
X6273800Y-4424679D01*
X1355089Y-1819910D02*
G01*
X715010Y-1819910D01*
X568960Y-1965960D01*
X365760Y-1965960D01*
X304800Y-2026920D01*
X304800Y-3632200D01*
X1798320Y-5125720D01*
X5547359Y-5125720D01*
X6217920Y-4455160D01*
X5354320Y-2717800D02*
G01*
X5501640Y-2865120D01*
X5806440Y-2865120D01*
X6294120Y-3352800D01*
X6294120Y-4312920D01*
X5527040Y-5080000D01*
X1828800Y-5080000D01*
X350520Y-3601720D01*
X350520Y-2062479D01*
X5313679Y-2829560D02*
G01*
X5410200Y-2926079D01*
X5806440Y-2926079D01*
X6243320Y-3362960D01*
X6243320Y-4292600D01*
X5496559Y-5039360D01*
X1854200Y-5039360D01*
X441960Y-3627120D01*
X441960Y-2098039D01*
X518160Y-2021839D01*
X5252720Y-2910839D02*
G01*
X5328920Y-2987039D01*
X5781040Y-2987039D01*
X6192520Y-3398520D01*
X6192520Y-4287520D01*
X5481320Y-4998720D01*
X1889760Y-4998720D01*
X502920Y-3611879D01*
X502920Y-2128520D01*
X771397Y-1860042D01*
X1355089Y-1860042D01*
X5166359Y-2961639D02*
G01*
X5242559Y-3037839D01*
X5775959Y-3037839D01*
X6146800Y-3408679D01*
X6146800Y-4262120D01*
X5450840Y-4958079D01*
X1899920Y-4958079D01*
X553720Y-3611879D01*
X553720Y-2133600D01*
X787400Y-1899920D01*
X1355089Y-1899920D01*
X5064759Y-2971800D02*
G01*
X5166359Y-3073400D01*
X5740400Y-3073400D01*
X6101079Y-3434079D01*
X6101079Y-4257039D01*
X5440679Y-4917439D01*
X1920239Y-4917439D01*
X594360Y-3591560D01*
X594360Y-2138679D01*
X792987Y-1940052D01*
X1355089Y-1940052D01*
X4993640Y-2992120D02*
G01*
X5115559Y-3114039D01*
X5735320Y-3114039D01*
X6055359Y-3434079D01*
X6055359Y-4236720D01*
X5415279Y-4876800D01*
X1930400Y-4876800D01*
X635000Y-3581400D01*
X635000Y-2159000D01*
X814070Y-1979929D01*
X1355089Y-1979929D01*
X6121400Y-2540000D02*
G01*
X6121400Y-2534920D01*
X5816600Y-2230120D01*
X4348479Y-2230120D01*
X4119879Y-2001520D01*
X1879600Y-2001520D01*
X1741144Y-2139975D01*
X1552981Y-2139975D01*
X934720Y-2113279D02*
G01*
X980439Y-2113279D01*
X1033754Y-2059965D01*
X1354988Y-2059965D01*
X965200Y-2042160D02*
G01*
X987399Y-2019960D01*
X1354988Y-2019960D01*
X3368040Y-2758439D02*
G01*
X3378200Y-2768600D01*
X3378200Y-3581400D01*
X3286759Y-3672839D01*
X2357120Y-3672839D01*
X2164079Y-3865879D01*
X2164079Y-4404360D01*
X1905000Y-4663439D01*
X1849120Y-4663439D01*
X3444240Y-2854960D02*
G01*
X3444240Y-3647439D01*
X3327400Y-3764279D01*
X2560320Y-3764279D01*
X3510279Y-2926079D02*
G01*
X3515359Y-2931160D01*
X3515359Y-3728720D01*
X3413759Y-3830320D01*
X2402840Y-3830320D01*
X3581400Y-2997200D02*
G01*
X3571240Y-3007360D01*
X3571240Y-3835400D01*
X6741157Y-3037842D02*
G01*
X6710685Y-3007357D01*
X6096000Y-3007357D01*
X5847085Y-2758442D01*
X5567685Y-2758442D01*
X5400042Y-2590800D01*
X5267957Y-2590800D01*
X5232400Y-2626357D01*
X5232400Y-2733042D01*
X5110485Y-2854957D01*
X4307842Y-2854957D01*
X4226559Y-2773674D01*
X4226559Y-2616200D01*
X4231640Y-2860039D02*
G01*
X4277359Y-2905760D01*
X5110479Y-2905760D01*
X5273040Y-2743200D01*
X5273040Y-2641600D01*
X5283200Y-2631439D01*
X5384800Y-2631439D01*
X5547359Y-2794000D01*
X5821679Y-2794000D01*
X6085840Y-3058160D01*
X6537959Y-3058160D01*
X6080759Y-2717800D02*
G01*
X6238240Y-2717800D01*
X6410959Y-2545079D01*
X6405879Y-2540000D01*
X6405879Y-609600D01*
X6471920Y-543560D01*
X6471920Y-421639D01*
X6121400Y-2540000D02*
G01*
X6289040Y-2540000D01*
X6350000Y-2479039D01*
X6350000Y-635000D01*
X6131559Y-416560D01*
X6126479Y-2616200D02*
G01*
X6121400Y-2616200D01*
X5770879Y-2265679D01*
X4318000Y-2265679D01*
X4089400Y-2037079D01*
X1894839Y-2037079D01*
X1751939Y-2179980D01*
X1552981Y-2179980D01*
X6121400Y-2458720D02*
G01*
X6121400Y-2453639D01*
X5867400Y-2199639D01*
X4389120Y-2199639D01*
X4155440Y-1965960D01*
X1849120Y-1965960D01*
X1715109Y-2099970D01*
X1552981Y-2099970D01*
X6121400Y-2382520D02*
G01*
X5897879Y-2159000D01*
X4434840Y-2159000D01*
X4191000Y-1915160D01*
X1833879Y-1915160D01*
X1689074Y-2059965D01*
X1552981Y-2059965D01*
X6121400Y-2311400D02*
G01*
X6121400Y-2280920D01*
X5969000Y-2128520D01*
X4475479Y-2128520D01*
X4216400Y-1869439D01*
X1838960Y-1869439D01*
X1688439Y-2019960D01*
X1552981Y-2019960D01*
X6111240Y-2199639D02*
G01*
X6111240Y-2189477D01*
X6009642Y-2087879D01*
X4500885Y-2087879D01*
X4246885Y-1833879D01*
X1823720Y-1833879D01*
X1677621Y-1979978D01*
X1552983Y-1979978D01*
X4185920Y-914400D02*
G01*
X4185920Y-939800D01*
X4053840Y-1071879D01*
X3246120Y-1071879D01*
X2926079Y-751839D01*
X2926079Y-533400D01*
X2824479Y-431800D01*
D15*
G01*
X1546479Y-1622475D03*
G01*
X1361490Y-1622475D03*
G01*
X1546504Y-2617470D03*
G01*
X1361490Y-2617495D03*
D16*
G01*
X1552981Y-2379979D03*
G01*
X1354988Y-2379979D03*
G01*
X1552981Y-2339975D03*
G01*
X1354988Y-2339975D03*
G01*
X1552981Y-2299970D03*
G01*
X1354988Y-2299970D03*
G01*
X1552981Y-2259964D03*
G01*
X1354988Y-2259964D03*
G01*
X1552981Y-2219960D03*
G01*
X1354988Y-2219960D03*
G01*
X1552981Y-2179980D03*
G01*
X1354988Y-2179980D03*
G01*
X1552981Y-2139975D03*
G01*
X1354988Y-2139975D03*
G01*
X1552981Y-2099970D03*
G01*
X1354988Y-2099970D03*
G01*
X1552981Y-2059965D03*
G01*
X1354988Y-2059965D03*
G01*
X1552981Y-2019960D03*
G01*
X1354988Y-2019960D03*
G01*
X1552981Y-1979980D03*
G01*
X1354988Y-1979980D03*
G01*
X1552981Y-1939975D03*
G01*
X1354988Y-1939975D03*
G01*
X1552981Y-1899970D03*
G01*
X1354988Y-1899970D03*
G01*
X1552981Y-1859965D03*
G01*
X1354988Y-1859965D03*
G01*
X1552981Y-1819960D03*
G01*
X1354988Y-1819960D03*
G01*
X1552981Y-1779955D03*
G01*
X1354988Y-1779955D03*
G01*
X1552981Y-1739976D03*
G01*
X1354988Y-1739976D03*
G01*
X1354988Y-2419959D03*
G01*
X1552981Y-2419959D03*
G01*
X1354988Y-2459964D03*
G01*
X1552981Y-2459964D03*
G01*
X1354988Y-2499969D03*
G01*
X1552981Y-2499969D03*
D17*
G01*
X3521989Y-688009D03*
D18*
G01*
X3521989Y-270002D03*
G01*
X4385995Y-270002D03*
D17*
G01*
X4385995Y-688009D03*
D19*
G01*
X4185920Y-914400D03*
G01*
X2824479Y-431800D03*
G01*
X6106159Y-2118360D03*
G01*
X6111240Y-2199639D03*
G01*
X6121400Y-2311400D03*
G01*
X6121400Y-2382520D03*
G01*
X6121400Y-2458720D03*
G01*
X6121400Y-2540000D03*
G01*
X6126479Y-2616200D03*
G01*
X6131559Y-416560D03*
G01*
X4993640Y-2992120D03*
G01*
X5064759Y-2971800D03*
G01*
X5166359Y-2961639D03*
G01*
X5252720Y-2910839D03*
G01*
X5313679Y-2829560D03*
G01*
X6080759Y-2717800D03*
G01*
X5354320Y-2717800D03*
G01*
X518160Y-2021839D03*
G01*
X350520Y-2062479D03*
G01*
X6471920Y-421639D03*
G01*
X4231640Y-2860039D03*
G01*
X6537959Y-3058160D03*
G01*
X6741159Y-3037839D03*
G01*
X4226559Y-2616200D03*
G01*
X3581400Y-2997200D03*
G01*
X3510279Y-2926079D03*
G01*
X3444240Y-2854960D03*
G01*
X3368040Y-2758439D03*
G01*
X3571240Y-3835400D03*
G01*
X2402840Y-3830320D03*
G01*
X2560320Y-3764279D03*
G01*
X1849120Y-4663439D03*
G01*
X965200Y-2042160D03*
G01*
X934720Y-2113279D03*
G01*
X6273800Y-4424679D03*
G01*
X1432560Y-396239D03*
G01*
X1056639Y-2301239D03*
G01*
X1066800Y-2377439D03*
G01*
X858520Y-2458720D03*
G01*
X914400Y-2392679D03*
G01*
X797560Y-2529839D03*
G01*
X1457960Y-2219960D03*
D20*
G01*
X4109720Y-325120D03*
G01*
X3959859Y-325120D03*
G01*
X3810000Y-325120D03*
G01*
X2834640Y-767079D03*
G01*
X3738879Y-2829560D03*
G01*
X3149600Y-2489200D03*
D19*
G01*
X4683759Y-1971039D03*
G01*
X4480559Y-1930400D03*
G01*
X4612640Y-2651760D03*
G01*
X4511040Y-2352039D03*
G01*
X5191759Y-1193800D03*
G01*
X3881120Y-1742439D03*
G01*
X6931710Y-1313129D03*
G01*
X7066279Y-2189479D03*
D20*
G01*
X4983479Y-4257039D03*
D19*
G01*
X1656079Y-1818639D03*
G01*
X1640839Y-2296160D03*
G01*
X3556761Y-3992118D03*
G01*
X2397759Y-4013200D03*
G01*
X2098040Y-3520439D03*
G01*
X2072640Y-4003039D03*
D13*
G01*
X3230879Y-3398520D03*
G01*
X2473959Y-4465320D03*
G01*
X1965959Y-4323079D03*
G01*
X1925320Y-4084320D03*
G01*
X1330960Y-3774439D03*
G01*
X1432560Y-3342639D03*
G01*
X2890520Y-3566160D03*
G01*
X3235959Y-4333239D03*
G01*
X3032759Y-4790439D03*
G01*
X3007359Y-2219960D03*
D19*
G01*
X1453997Y-2119985D03*
G01*
X2880359Y-2362200D03*
D13*
G01*
X4820920Y-2362200D03*
G01*
X4826000Y-2494279D03*
G01*
X4638040Y-2357120D03*
G01*
X4638040Y-2489200D03*
G01*
X6233159Y-1691639D03*
G01*
X6050279Y-1696720D03*
G01*
X5913120Y-1711960D03*
G01*
X5963920Y-1595120D03*
G01*
X5882640Y-1305560D03*
G01*
X5740400Y-1391920D03*
G01*
X6974840Y-1651000D03*
G01*
X5212079Y-1940560D03*
G01*
X3632200Y-2184400D03*
G01*
X3728720Y-1620520D03*
G01*
X3743959Y-1376679D03*
G01*
X3154679Y-2148839D03*
G01*
X2392679Y-1651000D03*
G01*
X2296159Y-1691639D03*
G01*
X2631440Y-1671320D03*
G01*
X2783840Y-1661160D03*
G01*
X2072640Y-1391920D03*
G01*
X1615439Y-1386839D03*
G01*
X2067559Y-1000760D03*
G01*
X2504440Y-995679D03*
G01*
X3134359Y-1137920D03*
G01*
X3291840Y-660400D03*
G01*
X4551679Y-889000D03*
G01*
X4876800Y-990600D03*
G01*
X5354320Y-1041400D03*
G01*
X5923279Y-975360D03*
G01*
X6791959Y-645160D03*
G01*
X7396479Y-614679D03*
G01*
X6207759Y-2895600D03*
G01*
X5567679Y-3266439D03*
G01*
X5369559Y-3220720D03*
G01*
X4998720Y-3144520D03*
G01*
X4861559Y-3058160D03*
G01*
X5146040Y-3784600D03*
G01*
X5334000Y-3759200D03*
G01*
X5049520Y-3931920D03*
G01*
X5715000Y-4175760D03*
G01*
X4414520Y-4480560D03*
G01*
X4165600Y-4505960D03*
G01*
X3815079Y-3997960D03*
G01*
X3820159Y-3794760D03*
G01*
X3804920Y-3459479D03*
G01*
X3810000Y-3368039D03*
G01*
X2753359Y-2738120D03*
G01*
X2468879Y-2702560D03*
G01*
X2113279Y-2814320D03*
G01*
X2524759Y-2565400D03*
G01*
X2214879Y-2245360D03*
G01*
X2057400Y-2453639D03*
G01*
X2057400Y-2164079D03*
G01*
X1859279Y-2768600D03*
G01*
X1757679Y-1310639D03*
G01*
X1661160Y-1198879D03*
G01*
X746760Y-1021079D03*
G01*
X736600Y-4541520D03*
G01*
X629920Y-4206239D03*
G01*
X107187Y-462787D03*
G01*
X107187Y-818387D03*
G01*
X107187Y-1173987D03*
G01*
X107187Y-1529587D03*
G01*
X107187Y-1885187D03*
G01*
X107187Y-2240787D03*
G01*
X107187Y-2596387D03*
G01*
X107187Y-2951987D03*
G01*
X107187Y-3307587D03*
G01*
X107187Y-3663187D03*
G01*
X107187Y-4018787D03*
G01*
X462787Y-107187D03*
G01*
X462787Y-462787D03*
G01*
X462787Y-818387D03*
G01*
X462787Y-1173987D03*
G01*
X462787Y-1529587D03*
G01*
X462787Y-4018787D03*
G01*
X462787Y-4374387D03*
G01*
X462787Y-4729987D03*
G01*
X818387Y-107187D03*
G01*
X818387Y-462787D03*
G01*
X818387Y-1173987D03*
G01*
X818387Y-1529587D03*
G01*
X818387Y-4374387D03*
G01*
X818387Y-4729987D03*
G01*
X1173987Y-107187D03*
G01*
X1173987Y-462787D03*
G01*
X1173987Y-818387D03*
G01*
X1173987Y-1173987D03*
G01*
X1173987Y-1529587D03*
G01*
X1529587Y-5085587D03*
G01*
X1885187Y-462787D03*
G01*
X1885187Y-818387D03*
G01*
X1885187Y-1173987D03*
G01*
X1885187Y-1529587D03*
G01*
X2240788Y-107187D03*
G01*
X2240788Y-462787D03*
G01*
X2240788Y-818387D03*
G01*
X2240788Y-1173987D03*
G01*
X2240788Y-4729987D03*
G01*
X2596388Y-107187D03*
G01*
X2596388Y-818387D03*
G01*
X2596388Y-1173987D03*
G01*
X2596388Y-4729987D03*
G01*
X2951988Y-107187D03*
G01*
X2951988Y-4374387D03*
G01*
X3307588Y-107187D03*
G01*
X3307588Y-818387D03*
G01*
X3307588Y-1173987D03*
G01*
X3307588Y-4018787D03*
G01*
X3307588Y-4729987D03*
G01*
X3663188Y-107187D03*
G01*
X3663188Y-1173987D03*
G01*
X3663188Y-1529587D03*
G01*
X3663188Y-4729987D03*
G01*
X4018788Y-107187D03*
G01*
X4018788Y-462787D03*
G01*
X4018788Y-1173987D03*
G01*
X4018788Y-1529587D03*
G01*
X4018788Y-2240787D03*
G01*
X4018788Y-4729987D03*
G01*
X4374388Y-107187D03*
G01*
X4374388Y-462787D03*
G01*
X4374388Y-1173987D03*
G01*
X4374388Y-3663187D03*
G01*
X4374388Y-4374387D03*
G01*
X4374388Y-4729987D03*
G01*
X4729988Y-107187D03*
G01*
X4729988Y-462787D03*
G01*
X4729988Y-818387D03*
G01*
X4729988Y-1173987D03*
G01*
X4729988Y-3307587D03*
G01*
X4729988Y-3663187D03*
G01*
X4729988Y-4729987D03*
G01*
X5085588Y-107187D03*
G01*
X5085588Y-462787D03*
G01*
X5085588Y-818387D03*
G01*
X5085588Y-4729987D03*
G01*
X5441188Y-107187D03*
G01*
X5441188Y-462787D03*
G01*
X5441188Y-818387D03*
G01*
X5441188Y-1885187D03*
G01*
X5441188Y-3307587D03*
G01*
X5441188Y-4018787D03*
G01*
X5796788Y-107187D03*
G01*
X5796788Y-462787D03*
G01*
X5796788Y-818387D03*
G01*
X5796788Y-1173987D03*
G01*
X5796788Y-1885187D03*
G01*
X5796788Y-2596387D03*
G01*
X5796788Y-3307587D03*
G01*
X5796788Y-3663187D03*
G01*
X5796788Y-4018787D03*
G01*
X5796788Y-5085587D03*
G01*
X6152388Y-818387D03*
G01*
X6152388Y-1885187D03*
G01*
X6152388Y-4729987D03*
G01*
X6152388Y-5085587D03*
G01*
X6507988Y-818387D03*
G01*
X6507988Y-1529587D03*
G01*
X6507988Y-1885187D03*
G01*
X6507988Y-3307587D03*
G01*
X6507988Y-3663187D03*
G01*
X6507988Y-4018787D03*
G01*
X6507988Y-4729987D03*
G01*
X6507988Y-5085587D03*
G01*
X6863588Y-107187D03*
G01*
X6863588Y-462787D03*
G01*
X6863588Y-1529587D03*
G01*
X6863588Y-1885187D03*
G01*
X6863588Y-3307587D03*
G01*
X6863588Y-3663187D03*
G01*
X6863588Y-4018787D03*
G01*
X6863588Y-4729987D03*
G01*
X7219188Y-107187D03*
G01*
X7219188Y-462787D03*
G01*
X7219188Y-1173987D03*
G01*
X7219188Y-1529587D03*
G01*
X7219188Y-1885187D03*
G01*
X7219188Y-2240787D03*
G01*
X7219188Y-2596387D03*
G01*
X7219188Y-2951987D03*
G01*
X7219188Y-3307587D03*
G01*
X7219188Y-3663187D03*
G01*
X7219188Y-4374387D03*
G01*
X7219188Y-4729987D03*
G01*
X7574788Y-818387D03*
G01*
X7574788Y-1173987D03*
G01*
X7574788Y-1529587D03*
G01*
X7574788Y-1885187D03*
G01*
X7574788Y-2240787D03*
G01*
X7574788Y-2596387D03*
G01*
X7574788Y-2951987D03*
G01*
X7574788Y-3307587D03*
G01*
X7574788Y-3663187D03*
G01*
X7574788Y-4018787D03*
G01*
X7574788Y-4374387D03*
M02*
