G04 Layer: TopSilkscreenLayer*
G04 EasyEDA v6.5.28, 2023-10-08 00:58:30*
G04 dae76cc8a077448fa0b369602e060784,f778c3a0cbec4862bbcf1335ede1f8c1,10*
G04 Gerber Generator version 0.2*
G04 Scale: 100 percent, Rotated: No, Reflected: No *
G04 Dimensions in millimeters *
G04 leading zeros omitted , absolute positions ,4 integer and 5 decimal *
%FSLAX45Y45*%
%MOMM*%

%ADD10C,0.1501*%
%ADD11C,0.2540*%
%ADD12C,0.1500*%

%LPD*%
G36*
X1727200Y-1587500D02*
G01*
X1727200Y-1758899D01*
X1752549Y-1758899D01*
X1752549Y-1720799D01*
X1752752Y-1714398D01*
X1753412Y-1708353D01*
X1754428Y-1702663D01*
X1755902Y-1697380D01*
X1757781Y-1692452D01*
X1760118Y-1687880D01*
X1762861Y-1683715D01*
X1766011Y-1679905D01*
X1769516Y-1676501D01*
X1773377Y-1673555D01*
X1777593Y-1671066D01*
X1782216Y-1669034D01*
X1787194Y-1667459D01*
X1792528Y-1666341D01*
X1798269Y-1665630D01*
X1804365Y-1665427D01*
X1812137Y-1665833D01*
X1819402Y-1667002D01*
X1826209Y-1668983D01*
X1832559Y-1671777D01*
X1838299Y-1675282D01*
X1843278Y-1679448D01*
X1847545Y-1684324D01*
X1851101Y-1689811D01*
X1853895Y-1695754D01*
X1855876Y-1702206D01*
X1857044Y-1709115D01*
X1857451Y-1716481D01*
X1857451Y-1758899D01*
X1727200Y-1758899D01*
X1727200Y-1868881D01*
X1752549Y-1868881D01*
X1752549Y-1816557D01*
X1753057Y-1807718D01*
X1754581Y-1799894D01*
X1757121Y-1793239D01*
X1760677Y-1787601D01*
X1765147Y-1783130D01*
X1770532Y-1779981D01*
X1776730Y-1778050D01*
X1783791Y-1777441D01*
X1789175Y-1777796D01*
X1794154Y-1778965D01*
X1798675Y-1780844D01*
X1802841Y-1783537D01*
X1806549Y-1786991D01*
X1809546Y-1790954D01*
X1811883Y-1795475D01*
X1813509Y-1800555D01*
X1857451Y-1772107D01*
X1857451Y-1796745D01*
X1817573Y-1821129D01*
X1817573Y-1846783D01*
X1857451Y-1846783D01*
X1857451Y-1868881D01*
X1727200Y-1868881D01*
X1727200Y-1947113D01*
X1752549Y-1947113D01*
X1752549Y-1921205D01*
X1857451Y-1883105D01*
X1857451Y-1904695D01*
X1830781Y-1914093D01*
X1830781Y-1953971D01*
X1857451Y-1963369D01*
X1857451Y-1985213D01*
X1752549Y-1947113D01*
X1727200Y-1947113D01*
X1727200Y-2048459D01*
X1751025Y-2048459D01*
X1751228Y-2042414D01*
X1751888Y-2036673D01*
X1753006Y-2031339D01*
X1754581Y-2026310D01*
X1756562Y-2021586D01*
X1759000Y-2017268D01*
X1761896Y-2013254D01*
X1765249Y-2009597D01*
X1769008Y-2006295D01*
X1773123Y-2003501D01*
X1777593Y-2001062D01*
X1782318Y-1999132D01*
X1787398Y-1997608D01*
X1792833Y-1996490D01*
X1798574Y-1995830D01*
X1804619Y-1995627D01*
X1812493Y-1996033D01*
X1819910Y-1997202D01*
X1826869Y-1999183D01*
X1833321Y-2001977D01*
X1839163Y-2005533D01*
X1844293Y-2009800D01*
X1848713Y-2014778D01*
X1852371Y-2020519D01*
X1855266Y-2026767D01*
X1857298Y-2033524D01*
X1858568Y-2040839D01*
X1858975Y-2048713D01*
X1858721Y-2054707D01*
X1858060Y-2060346D01*
X1856943Y-2065680D01*
X1855368Y-2070658D01*
X1853336Y-2075332D01*
X1850847Y-2079650D01*
X1847900Y-2083663D01*
X1844497Y-2087321D01*
X1840636Y-2090572D01*
X1836470Y-2093417D01*
X1832000Y-2095855D01*
X1827174Y-2097786D01*
X1821992Y-2099310D01*
X1816557Y-2100427D01*
X1810715Y-2101088D01*
X1804619Y-2101291D01*
X1798421Y-2101088D01*
X1792630Y-2100427D01*
X1787194Y-2099310D01*
X1782064Y-2097786D01*
X1777339Y-2095855D01*
X1772970Y-2093417D01*
X1768906Y-2090572D01*
X1765249Y-2087321D01*
X1761896Y-2083663D01*
X1759000Y-2079650D01*
X1756562Y-2075281D01*
X1754581Y-2070607D01*
X1753006Y-2065578D01*
X1751888Y-2060244D01*
X1751228Y-2054504D01*
X1751025Y-2048459D01*
X1727200Y-2048459D01*
X1727200Y-2207463D01*
X1752549Y-2207463D01*
X1752549Y-2159457D01*
X1752955Y-2150516D01*
X1754174Y-2142693D01*
X1756257Y-2136038D01*
X1759153Y-2130501D01*
X1762963Y-2126183D01*
X1767535Y-2123084D01*
X1772869Y-2121204D01*
X1778965Y-2120595D01*
X1783232Y-2120900D01*
X1787143Y-2121814D01*
X1790750Y-2123287D01*
X1793951Y-2125421D01*
X1796745Y-2128266D01*
X1799082Y-2131771D01*
X1800961Y-2135886D01*
X1802333Y-2140661D01*
X1803400Y-2134666D01*
X1805076Y-2129434D01*
X1807311Y-2124913D01*
X1810207Y-2121103D01*
X1813763Y-2118207D01*
X1817827Y-2116124D01*
X1822399Y-2114905D01*
X1827479Y-2114499D01*
X1834184Y-2115159D01*
X1840128Y-2117140D01*
X1845259Y-2120493D01*
X1849577Y-2125167D01*
X1853031Y-2131110D01*
X1855470Y-2138121D01*
X1856943Y-2146096D01*
X1857451Y-2155139D01*
X1857451Y-2207463D01*
X1727200Y-2207463D01*
X1727200Y-2220163D01*
X1752549Y-2220163D01*
X1814525Y-2257501D01*
X1857451Y-2257501D01*
X1857451Y-2279345D01*
X1814525Y-2279345D01*
X1752549Y-2316683D01*
X1752549Y-2293823D01*
X1796999Y-2268677D01*
X1752549Y-2243277D01*
X1752549Y-2220163D01*
X1727200Y-2220163D01*
X1727200Y-2410917D01*
X1752549Y-2410917D01*
X1752549Y-2328367D01*
X1769567Y-2328367D01*
X1769567Y-2388819D01*
X1795983Y-2388819D01*
X1795983Y-2332939D01*
X1813001Y-2332939D01*
X1813001Y-2388819D01*
X1840433Y-2388819D01*
X1840433Y-2325319D01*
X1857451Y-2325319D01*
X1857451Y-2410917D01*
X1727200Y-2410917D01*
X1727200Y-2520899D01*
X1752549Y-2520899D01*
X1752549Y-2498801D01*
X1800047Y-2498801D01*
X1752549Y-2451557D01*
X1752549Y-2426157D01*
X1796999Y-2470861D01*
X1857451Y-2422347D01*
X1857451Y-2448255D01*
X1809191Y-2485847D01*
X1819097Y-2498801D01*
X1857451Y-2498801D01*
X1857451Y-2520899D01*
X1727200Y-2520899D01*
X1727200Y-2559761D01*
X1805025Y-2598674D01*
X1882851Y-2559761D01*
X1882851Y-1587500D01*
G37*
G36*
X1804365Y-1687525D02*
G01*
X1796338Y-1688084D01*
X1789379Y-1689658D01*
X1783384Y-1692402D01*
X1778457Y-1696161D01*
X1774545Y-1701088D01*
X1771802Y-1706880D01*
X1770125Y-1713636D01*
X1769567Y-1721307D01*
X1769567Y-1736801D01*
X1840433Y-1736801D01*
X1840433Y-1718259D01*
X1839823Y-1711502D01*
X1837994Y-1705508D01*
X1834997Y-1700225D01*
X1830781Y-1695653D01*
X1825396Y-1692097D01*
X1819198Y-1689557D01*
X1812188Y-1688033D01*
G37*
G36*
X1784807Y-1799539D02*
G01*
X1778152Y-1800758D01*
X1773377Y-1804365D01*
X1770532Y-1810410D01*
X1769567Y-1818843D01*
X1769567Y-1846783D01*
X1800555Y-1846783D01*
X1800555Y-1818081D01*
X1800301Y-1813763D01*
X1799539Y-1810004D01*
X1798269Y-1806803D01*
X1796491Y-1804111D01*
X1794154Y-1802130D01*
X1791411Y-1800656D01*
X1788312Y-1799843D01*
G37*
G36*
X1814017Y-1918919D02*
G01*
X1784045Y-1929333D01*
X1768805Y-1934159D01*
X1774799Y-1935835D01*
X1814017Y-1949145D01*
G37*
G36*
X1804619Y-2017979D02*
G01*
X1796592Y-2018487D01*
X1789430Y-2019960D01*
X1783232Y-2022398D01*
X1777949Y-2025853D01*
X1773732Y-2030323D01*
X1770684Y-2035556D01*
X1768906Y-2041601D01*
X1768297Y-2048459D01*
X1768906Y-2055418D01*
X1770684Y-2061514D01*
X1773732Y-2066848D01*
X1777949Y-2071319D01*
X1783130Y-2074773D01*
X1789328Y-2077212D01*
X1796491Y-2078685D01*
X1804619Y-2079193D01*
X1812798Y-2078685D01*
X1820062Y-2077161D01*
X1826361Y-2074621D01*
X1831797Y-2071065D01*
X1836115Y-2066594D01*
X1839214Y-2061413D01*
X1841093Y-2055418D01*
X1841703Y-2048713D01*
X1841093Y-2041753D01*
X1839264Y-2035606D01*
X1836267Y-2030323D01*
X1832051Y-2025853D01*
X1826717Y-2022398D01*
X1820367Y-2019960D01*
X1813001Y-2018487D01*
G37*
G36*
X1825701Y-2136597D02*
G01*
X1819249Y-2137918D01*
X1814626Y-2141880D01*
X1811883Y-2148433D01*
X1810969Y-2157679D01*
X1810969Y-2185619D01*
X1841195Y-2185619D01*
X1841195Y-2156917D01*
X1840941Y-2151938D01*
X1840230Y-2147722D01*
X1839061Y-2144217D01*
X1837385Y-2141423D01*
X1835200Y-2139289D01*
X1832559Y-2137816D01*
X1829358Y-2136902D01*
G37*
G36*
X1782013Y-2142693D02*
G01*
X1778711Y-2142998D01*
X1775917Y-2143810D01*
X1773631Y-2145284D01*
X1771853Y-2147265D01*
X1770532Y-2149703D01*
X1769567Y-2152700D01*
X1769008Y-2156307D01*
X1768805Y-2160473D01*
X1768805Y-2185619D01*
X1794967Y-2185619D01*
X1794967Y-2160473D01*
X1794764Y-2156104D01*
X1794154Y-2152396D01*
X1793087Y-2149398D01*
X1791665Y-2147011D01*
X1789836Y-2145131D01*
X1787601Y-2143760D01*
X1785010Y-2142947D01*
G37*
D10*
X7402276Y-520011D02*
G01*
X4699508Y-520011D01*
X4699508Y-408912D01*
X3467310Y-408912D01*
X3467310Y-520011D01*
X2687228Y-520011D01*
X2687228Y-408912D01*
X1889335Y-408912D01*
X1889335Y-520011D01*
X503994Y-520011D01*
X503994Y-3903489D01*
X786792Y-3903489D01*
X786792Y-4337781D01*
X7119465Y-4337781D02*
G01*
X7119465Y-3903489D01*
X7402276Y-3903489D01*
X7402276Y-520011D01*
X2135411Y-4925763D02*
G01*
X2221260Y-4925763D01*
X2248408Y-4947940D01*
X2603152Y-4848956D02*
G01*
X2603152Y-4802398D01*
X1594568Y-4519414D02*
G01*
X1955317Y-4637608D01*
X2418928Y-4949563D02*
G01*
X2452253Y-4924696D01*
X2527411Y-4924696D01*
X2059670Y-4781575D02*
G01*
X2059670Y-4850023D01*
X2286744Y-4961608D02*
G01*
X2382677Y-4961608D01*
X938273Y-4489289D02*
G01*
X1405892Y-4489289D01*
X3142691Y-4711489D02*
G01*
X3142691Y-4701382D01*
X4753284Y-4701382D01*
X4753284Y-4721595D01*
X2967360Y-4741801D02*
G01*
X3112394Y-4741801D01*
X2704144Y-4701382D02*
G01*
X2937060Y-4701382D01*
X2937060Y-4711489D01*
X4773475Y-4741801D02*
G01*
X4864435Y-4741801D01*
X4946959Y-4741801D01*
X6503776Y-4489289D02*
G01*
X6967984Y-4489289D01*
X4967150Y-4721595D02*
G01*
X4967150Y-4701382D01*
X5547593Y-4701382D01*
X5719478Y-4701382D01*
X5890084Y-4671715D02*
G01*
X6299050Y-4524933D01*
D11*
X1568983Y-2534592D02*
G01*
X1568983Y-2579362D01*
X1338981Y-2534592D02*
G01*
X1338981Y-2579382D01*
D12*
X1568292Y-2653383D02*
G01*
X1338285Y-2653383D01*
X1568983Y-1589981D02*
G01*
X1338981Y-1589981D01*
D11*
X1338981Y-1660596D02*
G01*
X1338981Y-1705363D01*
X1568983Y-1705363D02*
G01*
X1568983Y-1660596D01*
D10*
G75*
G01*
X6967987Y-4489293D02*
G03*
X7119473Y-4337782I-25J151511D01*
G75*
G01*
X5719475Y-4701383D02*
G03*
X5890087Y-4671715I72J505003D01*
G75*
G01*
X3112394Y-4741794D02*
G03*
X3142696Y-4711492I0J30302D01*
G75*
G01*
X4946960Y-4741794D02*
G03*
X4967153Y-4721601I0J20193D01*
G75*
G01*
X6503777Y-4489293D02*
G03*
X6299053Y-4524929I21J-605993D01*
G75*
G01*
X4753285Y-4721601D02*
G03*
X4773478Y-4741794I20193J0D01*
G75*
G01*
X2704140Y-4701383D02*
G03*
X2603149Y-4802398I0J-100990D01*
G75*
G01*
X2937058Y-4711492D02*
G03*
X2967360Y-4741794I30302J0D01*
G75*
G01*
X1594566Y-4519417D02*
G03*
X1405895Y-4489293I-188687J-575869D01*
G75*
G01*
X2527407Y-4924699D02*
G03*
X2603149Y-4848957I0J75742D01*
G75*
G01*
X2059666Y-4781570D02*
G03*
X1955322Y-4637603I-151511J-15D01*
G75*
G01*
X2248413Y-4947940D02*
G03*
X2286742Y-4961606I38336J46939D01*
G75*
G01*
X786795Y-4337782D02*
G03*
X938281Y-4489293I151511J0D01*
G75*
G01*
X2382677Y-4961606D02*
G03*
X2418923Y-4949566I-8J60605D01*
G75*
G01*
X2059666Y-4850023D02*
G03*
X2135408Y-4925766I75742J0D01*
D12*
G75*
G01
X1305611Y-1739976D02*
G03X1305611Y-1739976I-7620J0D01*
M02*
