G04 Layer: BottomPasteMaskLayer*
G04 EasyEDA v6.5.28, 2023-10-08 00:58:30*
G04 dae76cc8a077448fa0b369602e060784,f778c3a0cbec4862bbcf1335ede1f8c1,10*
G04 Gerber Generator version 0.2*
G04 Scale: 100 percent, Rotated: No, Reflected: No *
G04 Dimensions in millimeters *
G04 leading zeros omitted , absolute positions ,4 integer and 5 decimal *
%FSLAX45Y45*%
%MOMM*%

%AMMACRO1*21,1,$1,$2,0,0,$3*%
%ADD10MACRO1,1.25X0.7X0.0000*%
%ADD11MACRO1,0.8X1.4X0.0000*%
%ADD12MACRO1,0.8X1.2X0.0000*%
%ADD13MACRO1,1.2X1.4X90.0000*%
%ADD14MACRO1,1.2X1.4X-90.0000*%
%ADD15R,1.4000X1.2000*%
%ADD16O,2.2500082X0.6299962*%
%ADD17MACRO1,0.665X0.224X0.0000*%
%ADD18MACRO1,0.224X0.665X0.0000*%
%ADD19MACRO1,3.2X3.2X0.0000*%
%ADD20MACRO1,0.532X1.072X90.0000*%
%ADD21MACRO1,0.8X0.9X-90.0000*%
%ADD22MACRO1,0.8X0.9X0.0000*%
%ADD23MACRO1,0.8X0.9X90.0000*%
%ADD24MACRO1,1X0.75X0.0000*%
%ADD25MACRO1,0.49X1.157X-90.0000*%
%ADD26MACRO1,0.49X1.175X-90.0000*%
%ADD27MACRO1,1X0.8X0.0000*%
%ADD28C,1.5000*%
%ADD29C,1.5000*%
%ADD30C,0.0165*%

%LPD*%
G36*
X6767220Y-1284173D02*
G01*
X6762191Y-1289202D01*
X6762191Y-1369161D01*
X6767220Y-1374190D01*
X6847179Y-1374190D01*
X6852208Y-1369161D01*
X6852208Y-1289202D01*
X6847179Y-1284173D01*
X6822998Y-1284173D01*
X6822998Y-1321155D01*
X6789978Y-1321155D01*
X6789978Y-1284173D01*
G37*
G36*
X6767220Y-1125169D02*
G01*
X6762191Y-1130198D01*
X6762191Y-1209192D01*
X6767220Y-1214170D01*
X6789978Y-1214170D01*
X6789978Y-1176172D01*
X6822998Y-1176172D01*
X6822998Y-1214170D01*
X6847179Y-1214170D01*
X6852208Y-1209192D01*
X6852208Y-1130198D01*
X6847179Y-1125169D01*
G37*
G36*
X3604006Y-687984D02*
G01*
X3604006Y-811987D01*
X3664000Y-811987D01*
X3664000Y-687984D01*
G37*
G36*
X3684015Y-687984D02*
G01*
X3684015Y-811987D01*
X3744010Y-811987D01*
X3744010Y-687984D01*
G37*
G36*
X3764026Y-687984D02*
G01*
X3764026Y-811987D01*
X3793998Y-811987D01*
X3793998Y-687984D01*
G37*
G36*
X3814013Y-687984D02*
G01*
X3814013Y-811987D01*
X3843985Y-811987D01*
X3843985Y-687984D01*
G37*
G36*
X3864000Y-687984D02*
G01*
X3864000Y-811987D01*
X3894023Y-811987D01*
X3894023Y-687984D01*
G37*
G36*
X3913987Y-687984D02*
G01*
X3913987Y-811987D01*
X3944010Y-811987D01*
X3944010Y-687984D01*
G37*
G36*
X3964025Y-687984D02*
G01*
X3964025Y-811987D01*
X3993997Y-811987D01*
X3993997Y-687984D01*
G37*
G36*
X4014012Y-687984D02*
G01*
X4014012Y-811987D01*
X4043984Y-811987D01*
X4043984Y-687984D01*
G37*
G36*
X4064000Y-687984D02*
G01*
X4064000Y-811987D01*
X4093972Y-811987D01*
X4093972Y-687984D01*
G37*
G36*
X4113987Y-687984D02*
G01*
X4113987Y-811987D01*
X4144010Y-811987D01*
X4144010Y-687984D01*
G37*
G36*
X4163974Y-687984D02*
G01*
X4163974Y-811987D01*
X4224020Y-811987D01*
X4224020Y-687984D01*
G37*
G36*
X4243984Y-687984D02*
G01*
X4243984Y-811987D01*
X4303979Y-811987D01*
X4303979Y-687984D01*
G37*
G36*
X3520744Y-583031D02*
G01*
X3515766Y-583387D01*
X3510889Y-584250D01*
X3506063Y-585622D01*
X3501440Y-587400D01*
X3496970Y-589686D01*
X3492804Y-592378D01*
X3488893Y-595528D01*
X3485337Y-598982D01*
X3482136Y-602792D01*
X3479342Y-606907D01*
X3476955Y-611276D01*
X3475024Y-615899D01*
X3473551Y-620674D01*
X3472535Y-625551D01*
X3472078Y-630529D01*
X3471976Y-743000D01*
X3472230Y-747979D01*
X3472992Y-752906D01*
X3474212Y-757732D01*
X3475939Y-762406D01*
X3478072Y-766927D01*
X3480663Y-771144D01*
X3483711Y-775157D01*
X3487064Y-778814D01*
X3490823Y-782066D01*
X3494887Y-785012D01*
X3499205Y-787501D01*
X3503726Y-789533D01*
X3508451Y-791108D01*
X3513328Y-792226D01*
X3518255Y-792886D01*
X3523234Y-792988D01*
X3528212Y-792632D01*
X3533140Y-791768D01*
X3537915Y-790397D01*
X3542537Y-788568D01*
X3547008Y-786282D01*
X3551174Y-783590D01*
X3555085Y-780491D01*
X3558641Y-776986D01*
X3561842Y-773176D01*
X3564636Y-769061D01*
X3567023Y-764692D01*
X3568954Y-760120D01*
X3570427Y-755345D01*
X3571443Y-750468D01*
X3571951Y-745490D01*
X3572001Y-633018D01*
X3571748Y-628040D01*
X3570986Y-623112D01*
X3569766Y-618236D01*
X3568090Y-613562D01*
X3565906Y-609092D01*
X3563315Y-604824D01*
X3560267Y-600862D01*
X3556914Y-597204D01*
X3553155Y-593902D01*
X3549142Y-591007D01*
X3544824Y-588518D01*
X3540251Y-586435D01*
X3535527Y-584860D01*
X3530650Y-583742D01*
X3525723Y-583133D01*
G37*
G36*
X3520744Y-179984D02*
G01*
X3515766Y-180390D01*
X3510889Y-181254D01*
X3506063Y-182575D01*
X3501440Y-184404D01*
X3496970Y-186690D01*
X3492804Y-189382D01*
X3488893Y-192481D01*
X3485337Y-195986D01*
X3482136Y-199796D01*
X3479342Y-203911D01*
X3476955Y-208279D01*
X3475024Y-212902D01*
X3473551Y-217627D01*
X3472535Y-222554D01*
X3472078Y-227482D01*
X3471976Y-309981D01*
X3472230Y-314960D01*
X3472992Y-319887D01*
X3474212Y-324713D01*
X3475939Y-329438D01*
X3478072Y-333908D01*
X3480663Y-338175D01*
X3483711Y-342138D01*
X3487064Y-345795D01*
X3490823Y-349097D01*
X3494887Y-351993D01*
X3499205Y-354482D01*
X3503726Y-356514D01*
X3508451Y-358140D01*
X3513328Y-359257D01*
X3518255Y-359867D01*
X3523234Y-359968D01*
X3528212Y-359613D01*
X3533140Y-358749D01*
X3537915Y-357378D01*
X3542537Y-355549D01*
X3547008Y-353314D01*
X3551174Y-350570D01*
X3555085Y-347472D01*
X3558641Y-344017D01*
X3561842Y-340207D01*
X3564636Y-336042D01*
X3567023Y-331673D01*
X3568954Y-327101D01*
X3570427Y-322326D01*
X3571443Y-317449D01*
X3571951Y-312470D01*
X3572001Y-229971D01*
X3571748Y-224993D01*
X3570986Y-220065D01*
X3569766Y-215239D01*
X3568090Y-210566D01*
X3565906Y-206095D01*
X3563315Y-201828D01*
X3560267Y-197866D01*
X3556914Y-194208D01*
X3553155Y-190906D01*
X3549142Y-188010D01*
X3544824Y-185521D01*
X3540251Y-183438D01*
X3535527Y-181864D01*
X3530650Y-180746D01*
X3525723Y-180136D01*
G37*
G36*
X4384751Y-583031D02*
G01*
X4379772Y-583387D01*
X4374896Y-584250D01*
X4370070Y-585622D01*
X4365447Y-587400D01*
X4361027Y-589686D01*
X4356811Y-592378D01*
X4352899Y-595528D01*
X4349343Y-598982D01*
X4346143Y-602792D01*
X4343349Y-606907D01*
X4340961Y-611276D01*
X4339031Y-615899D01*
X4337558Y-620674D01*
X4336542Y-625551D01*
X4336084Y-630529D01*
X4335983Y-743000D01*
X4336237Y-747979D01*
X4336999Y-752906D01*
X4338218Y-757732D01*
X4339945Y-762406D01*
X4342079Y-766927D01*
X4344670Y-771144D01*
X4347667Y-775157D01*
X4351070Y-778814D01*
X4354830Y-782066D01*
X4358894Y-785012D01*
X4363161Y-787501D01*
X4367733Y-789533D01*
X4372457Y-791108D01*
X4377334Y-792226D01*
X4382262Y-792886D01*
X4387240Y-792988D01*
X4392218Y-792632D01*
X4397146Y-791768D01*
X4401921Y-790397D01*
X4406544Y-788568D01*
X4411014Y-786282D01*
X4415180Y-783590D01*
X4419092Y-780491D01*
X4422648Y-776986D01*
X4425848Y-773176D01*
X4428642Y-769061D01*
X4431030Y-764692D01*
X4432960Y-760120D01*
X4434433Y-755345D01*
X4435449Y-750468D01*
X4435957Y-745490D01*
X4436008Y-633018D01*
X4435754Y-628040D01*
X4434992Y-623112D01*
X4433773Y-618236D01*
X4432096Y-613562D01*
X4429912Y-609092D01*
X4427321Y-604824D01*
X4424324Y-600862D01*
X4420920Y-597204D01*
X4417161Y-593902D01*
X4413097Y-591007D01*
X4408830Y-588518D01*
X4404258Y-586435D01*
X4399534Y-584860D01*
X4394708Y-583742D01*
X4389729Y-583133D01*
G37*
G36*
X4384751Y-179984D02*
G01*
X4379772Y-180390D01*
X4374896Y-181254D01*
X4370070Y-182575D01*
X4365447Y-184404D01*
X4361027Y-186690D01*
X4356811Y-189382D01*
X4352899Y-192481D01*
X4349343Y-195986D01*
X4346143Y-199796D01*
X4343349Y-203911D01*
X4340961Y-208279D01*
X4339031Y-212902D01*
X4337558Y-217627D01*
X4336542Y-222554D01*
X4336084Y-227482D01*
X4335983Y-309981D01*
X4336237Y-314960D01*
X4336999Y-319887D01*
X4338218Y-324713D01*
X4339945Y-329438D01*
X4342079Y-333908D01*
X4344670Y-338175D01*
X4347667Y-342138D01*
X4351070Y-345795D01*
X4354830Y-349097D01*
X4358894Y-351993D01*
X4363161Y-354482D01*
X4367733Y-356514D01*
X4372457Y-358140D01*
X4377334Y-359257D01*
X4382262Y-359867D01*
X4387240Y-359968D01*
X4392218Y-359613D01*
X4397146Y-358749D01*
X4401921Y-357378D01*
X4406544Y-355549D01*
X4411014Y-353314D01*
X4415180Y-350570D01*
X4419092Y-347472D01*
X4422648Y-344017D01*
X4425848Y-340207D01*
X4428642Y-336042D01*
X4431030Y-331673D01*
X4432960Y-327101D01*
X4434433Y-322326D01*
X4435449Y-317449D01*
X4435957Y-312470D01*
X4436008Y-229971D01*
X4435754Y-224993D01*
X4434992Y-220065D01*
X4433773Y-215239D01*
X4432096Y-210566D01*
X4429912Y-206095D01*
X4427321Y-201828D01*
X4424324Y-197866D01*
X4420920Y-194208D01*
X4417161Y-190906D01*
X4413097Y-188010D01*
X4408830Y-185521D01*
X4404258Y-183438D01*
X4399534Y-181864D01*
X4394708Y-180746D01*
X4389729Y-180136D01*
G37*
G36*
X6431940Y-2623769D02*
G01*
X6426911Y-2628798D01*
X6426911Y-2708757D01*
X6431940Y-2713786D01*
X6456121Y-2713786D01*
X6456121Y-2676804D01*
X6489141Y-2676804D01*
X6489141Y-2713786D01*
X6511899Y-2713786D01*
X6516928Y-2708757D01*
X6516928Y-2628798D01*
X6511899Y-2623769D01*
G37*
G36*
X6431940Y-2783789D02*
G01*
X6426911Y-2788767D01*
X6426911Y-2867761D01*
X6431940Y-2872790D01*
X6511899Y-2872790D01*
X6516928Y-2867761D01*
X6516928Y-2788767D01*
X6511899Y-2783789D01*
X6489141Y-2783789D01*
X6489141Y-2821787D01*
X6456121Y-2821787D01*
X6456121Y-2783789D01*
G37*
G36*
X4460900Y-1389329D02*
G01*
X4455871Y-1394358D01*
X4455871Y-1474317D01*
X4460900Y-1479346D01*
X4485081Y-1479346D01*
X4485081Y-1442313D01*
X4518101Y-1442313D01*
X4518101Y-1479346D01*
X4540859Y-1479346D01*
X4545888Y-1474317D01*
X4545888Y-1394358D01*
X4540859Y-1389329D01*
G37*
G36*
X4460900Y-1549349D02*
G01*
X4455871Y-1554327D01*
X4455871Y-1633321D01*
X4460900Y-1638350D01*
X4540859Y-1638350D01*
X4545888Y-1633321D01*
X4545888Y-1554327D01*
X4540859Y-1549349D01*
X4518101Y-1549349D01*
X4518101Y-1587347D01*
X4485081Y-1587347D01*
X4485081Y-1549349D01*
G37*
G36*
X4628540Y-3355289D02*
G01*
X4623511Y-3360318D01*
X4623511Y-3440277D01*
X4628540Y-3445306D01*
X4652721Y-3445306D01*
X4652721Y-3408273D01*
X4685741Y-3408273D01*
X4685741Y-3445306D01*
X4708499Y-3445306D01*
X4713528Y-3440277D01*
X4713528Y-3360318D01*
X4708499Y-3355289D01*
G37*
G36*
X4628540Y-3515309D02*
G01*
X4623511Y-3520287D01*
X4623511Y-3599281D01*
X4628540Y-3604310D01*
X4708499Y-3604310D01*
X4713528Y-3599281D01*
X4713528Y-3520287D01*
X4708499Y-3515309D01*
X4685741Y-3515309D01*
X4685741Y-3553307D01*
X4652721Y-3553307D01*
X4652721Y-3515309D01*
G37*
G36*
X6528460Y-1294333D02*
G01*
X6523431Y-1299362D01*
X6523431Y-1379321D01*
X6528460Y-1384350D01*
X6608419Y-1384350D01*
X6613448Y-1379321D01*
X6613448Y-1299362D01*
X6608419Y-1294333D01*
X6584238Y-1294333D01*
X6584238Y-1331315D01*
X6551218Y-1331315D01*
X6551218Y-1294333D01*
G37*
G36*
X6528460Y-1135329D02*
G01*
X6523431Y-1140358D01*
X6523431Y-1219352D01*
X6528460Y-1224330D01*
X6551218Y-1224330D01*
X6551218Y-1186332D01*
X6584238Y-1186332D01*
X6584238Y-1224330D01*
X6608419Y-1224330D01*
X6613448Y-1219352D01*
X6613448Y-1140358D01*
X6608419Y-1135329D01*
G37*
G36*
X6431940Y-2168093D02*
G01*
X6426911Y-2173122D01*
X6426911Y-2253081D01*
X6431940Y-2258110D01*
X6511899Y-2258110D01*
X6516928Y-2253081D01*
X6516928Y-2173122D01*
X6511899Y-2168093D01*
X6487718Y-2168093D01*
X6487718Y-2205126D01*
X6454698Y-2205126D01*
X6454698Y-2168093D01*
G37*
G36*
X6431940Y-2009089D02*
G01*
X6426911Y-2014118D01*
X6426911Y-2093112D01*
X6431940Y-2098090D01*
X6454698Y-2098090D01*
X6454698Y-2060092D01*
X6487718Y-2060092D01*
X6487718Y-2098090D01*
X6511899Y-2098090D01*
X6516928Y-2093112D01*
X6516928Y-2014118D01*
X6511899Y-2009089D01*
G37*
G36*
X4648860Y-1389329D02*
G01*
X4643831Y-1394358D01*
X4643831Y-1474317D01*
X4648860Y-1479346D01*
X4673041Y-1479346D01*
X4673041Y-1442313D01*
X4706061Y-1442313D01*
X4706061Y-1479346D01*
X4728819Y-1479346D01*
X4733848Y-1474317D01*
X4733848Y-1394358D01*
X4728819Y-1389329D01*
G37*
G36*
X4648860Y-1549349D02*
G01*
X4643831Y-1554327D01*
X4643831Y-1633321D01*
X4648860Y-1638350D01*
X4728819Y-1638350D01*
X4733848Y-1633321D01*
X4733848Y-1554327D01*
X4728819Y-1549349D01*
X4706061Y-1549349D01*
X4706061Y-1587347D01*
X4673041Y-1587347D01*
X4673041Y-1549349D01*
G37*
G36*
X2174900Y-4596333D02*
G01*
X2169871Y-4601362D01*
X2169871Y-4681321D01*
X2174900Y-4686350D01*
X2254859Y-4686350D01*
X2259888Y-4681321D01*
X2259888Y-4601362D01*
X2254859Y-4596333D01*
X2230678Y-4596333D01*
X2230678Y-4633315D01*
X2197658Y-4633315D01*
X2197658Y-4596333D01*
G37*
G36*
X2174900Y-4437329D02*
G01*
X2169871Y-4442358D01*
X2169871Y-4521352D01*
X2174900Y-4526330D01*
X2197658Y-4526330D01*
X2197658Y-4488332D01*
X2230678Y-4488332D01*
X2230678Y-4526330D01*
X2254859Y-4526330D01*
X2259888Y-4521352D01*
X2259888Y-4442358D01*
X2254859Y-4437329D01*
G37*
G36*
X2687980Y-4621733D02*
G01*
X2682951Y-4626762D01*
X2682951Y-4706721D01*
X2687980Y-4711750D01*
X2767939Y-4711750D01*
X2772968Y-4706721D01*
X2772968Y-4626762D01*
X2767939Y-4621733D01*
X2743758Y-4621733D01*
X2743758Y-4658715D01*
X2710738Y-4658715D01*
X2710738Y-4621733D01*
G37*
G36*
X2687980Y-4462729D02*
G01*
X2682951Y-4467758D01*
X2682951Y-4546752D01*
X2687980Y-4551730D01*
X2710738Y-4551730D01*
X2710738Y-4513732D01*
X2743758Y-4513732D01*
X2743758Y-4551730D01*
X2767939Y-4551730D01*
X2772968Y-4546752D01*
X2772968Y-4467758D01*
X2767939Y-4462729D01*
G37*
G36*
X2179980Y-3295853D02*
G01*
X2174951Y-3300882D01*
X2174951Y-3380841D01*
X2179980Y-3385870D01*
X2259939Y-3385870D01*
X2264968Y-3380841D01*
X2264968Y-3300882D01*
X2259939Y-3295853D01*
X2235758Y-3295853D01*
X2235758Y-3332886D01*
X2202738Y-3332886D01*
X2202738Y-3295853D01*
G37*
G36*
X2179980Y-3136849D02*
G01*
X2174951Y-3141878D01*
X2174951Y-3220872D01*
X2179980Y-3225850D01*
X2202738Y-3225850D01*
X2202738Y-3187852D01*
X2235758Y-3187852D01*
X2235758Y-3225850D01*
X2259939Y-3225850D01*
X2264968Y-3220872D01*
X2264968Y-3141878D01*
X2259939Y-3136849D01*
G37*
G36*
X1509420Y-3295853D02*
G01*
X1504391Y-3300882D01*
X1504391Y-3380841D01*
X1509420Y-3385870D01*
X1589379Y-3385870D01*
X1594408Y-3380841D01*
X1594408Y-3300882D01*
X1589379Y-3295853D01*
X1565198Y-3295853D01*
X1565198Y-3332886D01*
X1532178Y-3332886D01*
X1532178Y-3295853D01*
G37*
G36*
X1509420Y-3136849D02*
G01*
X1504391Y-3141878D01*
X1504391Y-3220872D01*
X1509420Y-3225850D01*
X1532178Y-3225850D01*
X1532178Y-3187852D01*
X1565198Y-3187852D01*
X1565198Y-3225850D01*
X1589379Y-3225850D01*
X1594408Y-3220872D01*
X1594408Y-3141878D01*
X1589379Y-3136849D01*
G37*
G36*
X3358540Y-3951173D02*
G01*
X3353511Y-3956202D01*
X3353511Y-4036161D01*
X3358540Y-4041190D01*
X3438550Y-4041190D01*
X3443528Y-4036161D01*
X3443528Y-3956202D01*
X3438550Y-3951173D01*
X3414318Y-3951173D01*
X3414318Y-3988155D01*
X3381349Y-3988155D01*
X3381349Y-3951173D01*
G37*
G36*
X3358540Y-3792169D02*
G01*
X3353511Y-3797198D01*
X3353511Y-3876192D01*
X3358540Y-3881170D01*
X3381349Y-3881170D01*
X3381349Y-3843172D01*
X3414318Y-3843172D01*
X3414318Y-3881170D01*
X3438550Y-3881170D01*
X3443528Y-3876192D01*
X3443528Y-3797198D01*
X3438550Y-3792169D01*
G37*
G36*
X2693060Y-3971493D02*
G01*
X2688031Y-3976522D01*
X2688031Y-4056481D01*
X2693060Y-4061510D01*
X2773019Y-4061510D01*
X2778048Y-4056481D01*
X2778048Y-3976522D01*
X2773019Y-3971493D01*
X2748838Y-3971493D01*
X2748838Y-4008526D01*
X2715818Y-4008526D01*
X2715818Y-3971493D01*
G37*
G36*
X2693060Y-3812489D02*
G01*
X2688031Y-3817518D01*
X2688031Y-3896512D01*
X2693060Y-3901490D01*
X2715818Y-3901490D01*
X2715818Y-3863492D01*
X2748838Y-3863492D01*
X2748838Y-3901490D01*
X2773019Y-3901490D01*
X2778048Y-3896512D01*
X2778048Y-3817518D01*
X2773019Y-3812489D01*
G37*
G36*
X3358540Y-3275533D02*
G01*
X3353511Y-3280562D01*
X3353511Y-3360521D01*
X3358540Y-3365550D01*
X3438499Y-3365550D01*
X3443528Y-3360521D01*
X3443528Y-3280562D01*
X3438499Y-3275533D01*
X3414318Y-3275533D01*
X3414318Y-3312515D01*
X3381298Y-3312515D01*
X3381298Y-3275533D01*
G37*
G36*
X3358540Y-3116529D02*
G01*
X3353511Y-3121558D01*
X3353511Y-3200552D01*
X3358540Y-3205530D01*
X3381298Y-3205530D01*
X3381298Y-3167532D01*
X3414318Y-3167532D01*
X3414318Y-3205530D01*
X3438499Y-3205530D01*
X3443528Y-3200552D01*
X3443528Y-3121558D01*
X3438499Y-3116529D01*
G37*
G36*
X2698140Y-3290773D02*
G01*
X2693111Y-3295802D01*
X2693111Y-3375761D01*
X2698140Y-3380790D01*
X2778099Y-3380790D01*
X2783128Y-3375761D01*
X2783128Y-3295802D01*
X2778099Y-3290773D01*
X2753918Y-3290773D01*
X2753918Y-3327755D01*
X2720898Y-3327755D01*
X2720898Y-3290773D01*
G37*
G36*
X2698140Y-3131769D02*
G01*
X2693111Y-3136798D01*
X2693111Y-3215792D01*
X2698140Y-3220770D01*
X2720898Y-3220770D01*
X2720898Y-3182772D01*
X2753918Y-3182772D01*
X2753918Y-3220770D01*
X2778099Y-3220770D01*
X2783128Y-3215792D01*
X2783128Y-3136798D01*
X2778099Y-3131769D01*
G37*
G36*
X2179980Y-3946093D02*
G01*
X2174951Y-3951122D01*
X2174951Y-4031081D01*
X2179980Y-4036110D01*
X2259939Y-4036110D01*
X2264968Y-4031081D01*
X2264968Y-3951122D01*
X2259939Y-3946093D01*
X2235758Y-3946093D01*
X2235758Y-3983126D01*
X2202738Y-3983126D01*
X2202738Y-3946093D01*
G37*
G36*
X2179980Y-3787089D02*
G01*
X2174951Y-3792118D01*
X2174951Y-3871112D01*
X2179980Y-3876090D01*
X2202738Y-3876090D01*
X2202738Y-3838092D01*
X2235758Y-3838092D01*
X2235758Y-3876090D01*
X2259939Y-3876090D01*
X2264968Y-3871112D01*
X2264968Y-3792118D01*
X2259939Y-3787089D01*
G37*
G36*
X1509420Y-3951173D02*
G01*
X1504391Y-3956202D01*
X1504391Y-4036161D01*
X1509420Y-4041190D01*
X1589379Y-4041190D01*
X1594408Y-4036161D01*
X1594408Y-3956202D01*
X1589379Y-3951173D01*
X1565198Y-3951173D01*
X1565198Y-3988155D01*
X1532178Y-3988155D01*
X1532178Y-3951173D01*
G37*
G36*
X1509420Y-3792169D02*
G01*
X1504391Y-3797198D01*
X1504391Y-3876192D01*
X1509420Y-3881170D01*
X1532178Y-3881170D01*
X1532178Y-3843172D01*
X1565198Y-3843172D01*
X1565198Y-3881170D01*
X1589379Y-3881170D01*
X1594408Y-3876192D01*
X1594408Y-3797198D01*
X1589379Y-3792169D01*
G37*
G36*
X3358540Y-4601413D02*
G01*
X3353511Y-4606442D01*
X3353511Y-4686401D01*
X3358540Y-4691430D01*
X3438499Y-4691430D01*
X3443528Y-4686401D01*
X3443528Y-4606442D01*
X3438499Y-4601413D01*
X3414318Y-4601413D01*
X3414318Y-4638395D01*
X3381298Y-4638395D01*
X3381298Y-4601413D01*
G37*
G36*
X3358540Y-4442409D02*
G01*
X3353511Y-4447438D01*
X3353511Y-4526432D01*
X3358540Y-4531410D01*
X3381298Y-4531410D01*
X3381298Y-4493412D01*
X3414318Y-4493412D01*
X3414318Y-4531410D01*
X3438499Y-4531410D01*
X3443528Y-4526432D01*
X3443528Y-4447438D01*
X3438499Y-4442409D01*
G37*
G36*
X2564282Y-381711D02*
G01*
X2559253Y-386740D01*
X2559253Y-410921D01*
X2596286Y-410921D01*
X2596286Y-443941D01*
X2559253Y-443941D01*
X2559253Y-466699D01*
X2564282Y-471728D01*
X2644241Y-471728D01*
X2649270Y-466699D01*
X2649270Y-386740D01*
X2644241Y-381711D01*
G37*
G36*
X2405278Y-381711D02*
G01*
X2400249Y-386740D01*
X2400249Y-466699D01*
X2405278Y-471728D01*
X2484272Y-471728D01*
X2489250Y-466699D01*
X2489250Y-443941D01*
X2451252Y-443941D01*
X2451252Y-410921D01*
X2489250Y-410921D01*
X2489250Y-386740D01*
X2484272Y-381711D01*
G37*
G36*
X2564282Y-574751D02*
G01*
X2559253Y-579780D01*
X2559253Y-603961D01*
X2596286Y-603961D01*
X2596286Y-636981D01*
X2559253Y-636981D01*
X2559253Y-659739D01*
X2564282Y-664768D01*
X2644241Y-664768D01*
X2649270Y-659739D01*
X2649270Y-579780D01*
X2644241Y-574751D01*
G37*
G36*
X2405278Y-574751D02*
G01*
X2400249Y-579780D01*
X2400249Y-659739D01*
X2405278Y-664768D01*
X2484272Y-664768D01*
X2489250Y-659739D01*
X2489250Y-636981D01*
X2451252Y-636981D01*
X2451252Y-603961D01*
X2489250Y-603961D01*
X2489250Y-579780D01*
X2484272Y-574751D01*
G37*
G36*
X1509420Y-4596333D02*
G01*
X1504391Y-4601362D01*
X1504391Y-4681321D01*
X1509420Y-4686350D01*
X1589379Y-4686350D01*
X1594408Y-4681321D01*
X1594408Y-4601362D01*
X1589379Y-4596333D01*
X1565198Y-4596333D01*
X1565198Y-4633315D01*
X1532178Y-4633315D01*
X1532178Y-4596333D01*
G37*
G36*
X1509420Y-4437329D02*
G01*
X1504391Y-4442358D01*
X1504391Y-4521352D01*
X1509420Y-4526330D01*
X1532178Y-4526330D01*
X1532178Y-4488332D01*
X1565198Y-4488332D01*
X1565198Y-4526330D01*
X1589379Y-4526330D01*
X1594408Y-4521352D01*
X1594408Y-4442358D01*
X1589379Y-4437329D01*
G37*
D10*
G01*
X1779600Y-4651756D03*
G01*
X1779600Y-4461765D03*
G01*
X1979599Y-4556761D03*
D11*
G01*
X6467487Y-286755D03*
G01*
X6132487Y-286755D03*
D12*
G01*
X6524988Y-103256D03*
G01*
X6074986Y-103256D03*
D11*
G01*
X1767497Y-286755D03*
G01*
X1432496Y-286755D03*
D12*
G01*
X1824997Y-103256D03*
G01*
X1374995Y-103256D03*
D13*
G01*
X5342399Y-3574948D03*
G01*
X5122400Y-3574948D03*
D14*
G01*
X5122400Y-3404946D03*
D15*
G01*
X5342407Y-3404946D03*
D16*
G01*
X6210249Y-1196339D03*
G01*
X6210249Y-1323339D03*
G01*
X6210249Y-1450339D03*
G01*
X6210249Y-1577339D03*
G01*
X5504230Y-1196339D03*
G01*
X5504230Y-1323339D03*
G01*
X5504230Y-1450339D03*
G01*
X5504230Y-1577339D03*
D17*
G01*
X5065153Y-2132672D03*
G01*
X5065153Y-2172677D03*
G01*
X5065153Y-2212682D03*
G01*
X5065153Y-2252662D03*
G01*
X5065153Y-2292667D03*
G01*
X5065153Y-2332672D03*
G01*
X5065153Y-2372677D03*
G01*
X5065153Y-2412682D03*
G01*
X5065153Y-2452662D03*
G01*
X5065153Y-2492667D03*
G01*
X5065153Y-2532672D03*
G01*
X5065153Y-2572677D03*
G01*
X5065153Y-2612682D03*
G01*
X5065153Y-2652661D03*
D18*
G01*
X4984381Y-2733433D03*
G01*
X4944402Y-2733433D03*
G01*
X4904397Y-2733433D03*
G01*
X4864392Y-2733433D03*
G01*
X4824387Y-2733433D03*
G01*
X4784382Y-2733433D03*
G01*
X4744402Y-2733433D03*
G01*
X4704397Y-2733433D03*
G01*
X4664392Y-2733433D03*
G01*
X4624387Y-2733433D03*
G01*
X4584382Y-2733433D03*
G01*
X4544402Y-2733433D03*
G01*
X4504397Y-2733433D03*
G01*
X4464392Y-2733433D03*
D17*
G01*
X4383646Y-2652661D03*
G01*
X4383646Y-2612682D03*
G01*
X4383646Y-2572677D03*
G01*
X4383646Y-2532672D03*
G01*
X4383646Y-2492667D03*
G01*
X4383646Y-2452662D03*
G01*
X4383646Y-2412682D03*
G01*
X4383646Y-2372677D03*
G01*
X4383646Y-2332672D03*
G01*
X4383646Y-2292667D03*
G01*
X4383646Y-2252662D03*
G01*
X4383646Y-2212682D03*
G01*
X4383646Y-2172677D03*
G01*
X4383646Y-2132672D03*
D18*
G01*
X4464392Y-2051926D03*
G01*
X4504397Y-2051926D03*
G01*
X4544402Y-2051926D03*
G01*
X4584382Y-2051926D03*
G01*
X4624387Y-2051926D03*
G01*
X4664392Y-2051926D03*
G01*
X4704397Y-2051926D03*
G01*
X4744402Y-2051926D03*
G01*
X4784382Y-2051926D03*
G01*
X4824387Y-2051926D03*
G01*
X4864392Y-2051926D03*
G01*
X4904397Y-2051926D03*
G01*
X4944402Y-2051926D03*
G01*
X4984381Y-2051926D03*
D19*
G01*
X4724412Y-2392667D03*
D20*
G01*
X2780436Y-2035810D03*
G01*
X2780436Y-1940813D03*
G01*
X2780436Y-1845818D03*
G01*
X3010255Y-1845818D03*
G01*
X3010255Y-1940813D03*
G01*
X3010255Y-2035810D03*
D10*
G01*
X6912279Y-2658364D03*
G01*
X6912279Y-2848354D03*
G01*
X6712280Y-2753358D03*
D21*
G01*
X4323079Y-1583839D03*
G01*
X4323079Y-1443840D03*
D22*
G01*
X5548475Y-2128519D03*
G01*
X5688474Y-2128519D03*
D21*
G01*
X4119879Y-1588919D03*
G01*
X4119879Y-1448920D03*
G01*
X5054600Y-1578759D03*
G01*
X5054600Y-1438760D03*
G01*
X4155439Y-3559959D03*
G01*
X4155439Y-3419960D03*
D22*
G01*
X3869839Y-2555240D03*
G01*
X3729840Y-2555240D03*
G01*
X5553560Y-2550159D03*
G01*
X5693559Y-2550159D03*
D23*
G01*
X4353560Y-3425040D03*
G01*
X4353560Y-3565039D03*
D21*
G01*
X4866639Y-1588919D03*
G01*
X4866639Y-1448920D03*
D22*
G01*
X3272386Y-2022094D03*
G01*
X3412385Y-2022094D03*
G01*
X3412385Y-1829053D03*
G01*
X3272386Y-1829053D03*
D21*
G01*
X2529586Y-2005733D03*
G01*
X2529586Y-1865734D03*
D22*
G01*
X3869839Y-2133600D03*
G01*
X3729840Y-2133600D03*
D23*
G01*
X4892039Y-3414880D03*
G01*
X4892039Y-3554879D03*
D21*
G01*
X5638800Y-3570119D03*
G01*
X5638800Y-3430120D03*
G01*
X3296920Y-1482239D03*
G01*
X3296920Y-1342240D03*
G01*
X2529839Y-1502559D03*
G01*
X2529839Y-1362560D03*
D24*
G01*
X3007775Y-1066800D03*
G01*
X2773269Y-1066800D03*
D25*
G01*
X3007085Y-1337563D03*
G01*
X3007085Y-1432559D03*
G01*
X3007085Y-1527556D03*
D26*
G01*
X2776352Y-1527556D03*
G01*
X2776352Y-1337563D03*
D27*
G01*
X6927281Y-2223521D03*
G01*
X6697278Y-2128525D03*
G01*
X6927278Y-2033518D03*
D10*
G01*
X2948990Y-4688720D03*
G01*
X2948990Y-4498729D03*
G01*
X3148990Y-4593725D03*
G01*
X1784377Y-3357722D03*
G01*
X1784377Y-3167731D03*
G01*
X1984377Y-3262727D03*
G01*
X2953080Y-4021835D03*
G01*
X2953080Y-3831845D03*
G01*
X3153079Y-3926841D03*
G01*
X2968320Y-3346109D03*
G01*
X2968320Y-3156118D03*
G01*
X3168319Y-3251114D03*
G01*
X1779600Y-4016756D03*
G01*
X1779600Y-3826765D03*
G01*
X1979599Y-3921761D03*
D28*
G01*
X5994400Y-4414520D03*
D29*
G01*
X4978400Y-4414520D03*
G01*
X4724425Y-4414520D03*
G01*
X5486400Y-4414520D03*
G01*
X5232425Y-4414520D03*
G01*
X5740400Y-4414520D03*
M02*
