G04 Layer: TopPasteMaskLayer*
G04 EasyEDA v6.5.28, 2023-10-08 00:58:30*
G04 dae76cc8a077448fa0b369602e060784,f778c3a0cbec4862bbcf1335ede1f8c1,10*
G04 Gerber Generator version 0.2*
G04 Scale: 100 percent, Rotated: No, Reflected: No *
G04 Dimensions in millimeters *
G04 leading zeros omitted , absolute positions ,4 integer and 5 decimal *
%FSLAX45Y45*%
%MOMM*%

%ADD10R,0.7500X0.3000*%
%ADD11R,0.4200X0.2000*%

%LPD*%
D10*
G01*
X1546479Y-1622475D03*
G01*
X1361490Y-1622475D03*
G01*
X1546504Y-2617470D03*
G01*
X1361490Y-2617495D03*
D11*
G01*
X1552981Y-2379979D03*
G01*
X1354988Y-2379979D03*
G01*
X1552981Y-2339975D03*
G01*
X1354988Y-2339975D03*
G01*
X1552981Y-2299970D03*
G01*
X1354988Y-2299970D03*
G01*
X1552981Y-2259964D03*
G01*
X1354988Y-2259964D03*
G01*
X1552981Y-2219960D03*
G01*
X1354988Y-2219960D03*
G01*
X1552981Y-2179980D03*
G01*
X1354988Y-2179980D03*
G01*
X1552981Y-2139975D03*
G01*
X1354988Y-2139975D03*
G01*
X1552981Y-2099970D03*
G01*
X1354988Y-2099970D03*
G01*
X1552981Y-2059965D03*
G01*
X1354988Y-2059965D03*
G01*
X1552981Y-2019960D03*
G01*
X1354988Y-2019960D03*
G01*
X1552981Y-1979980D03*
G01*
X1354988Y-1979980D03*
G01*
X1552981Y-1939975D03*
G01*
X1354988Y-1939975D03*
G01*
X1552981Y-1899970D03*
G01*
X1354988Y-1899970D03*
G01*
X1552981Y-1859965D03*
G01*
X1354988Y-1859965D03*
G01*
X1552981Y-1819960D03*
G01*
X1354988Y-1819960D03*
G01*
X1552981Y-1779955D03*
G01*
X1354988Y-1779955D03*
G01*
X1552981Y-1739976D03*
G01*
X1354988Y-1739976D03*
G01*
X1354988Y-2419959D03*
G01*
X1552981Y-2419959D03*
G01*
X1354988Y-2459964D03*
G01*
X1552981Y-2459964D03*
G01*
X1354988Y-2499969D03*
G01*
X1552981Y-2499969D03*
M02*
